<svg xmlns="http://www.w3.org/2000/svg" version="1.1" xmlns:xlink="http://www.w3.org/1999/xlink" xmlns:svgjs="http://svgjs.dev/svgjs" width="2000" height="575" viewBox="0 0 2000 575"><g transform="matrix(1,0,0,1,-1.2121212121212466,-2.062474712495316)"><svg viewBox="0 0 396 114" data-background-color="#ffffff" preserveAspectRatio="xMidYMid meet" height="575" width="2000" xmlns="http://www.w3.org/2000/svg" xmlns:xlink="http://www.w3.org/1999/xlink"><g id="tight-bounds" transform="matrix(1,0,0,1,0.2400000000000091,0.4089080299555974)"><svg viewBox="0 0 395.52 113.18185979738523" height="113.18185979738523" width="395.52"><g><svg viewBox="0 0 580.6986812941367 166.17252409678264" height="113.18185979738523" width="395.52"><g transform="matrix(1,0,0,1,185.1786812941367,49.37917091380847)"><svg viewBox="0 0 395.52 67.41418226916569" height="67.41418226916569" width="395.52"><g id="textblocktransform"><svg viewBox="0 0 395.52 67.41418226916569" height="67.41418226916569" width="395.52" id="textblock"><g><svg viewBox="0 0 395.52 40.25431894253134" height="40.25431894253134" width="395.52"><g transform="matrix(1,0,0,1,0,0)"><svg width="395.52" viewBox="2.05 -29.05 293.75333333333003 29.900000000000002" height="40.25431894253134" data-palette-color="#485f99"><path d="M12.95 0.6L12.95 0.6Q7.8 0.6 4.93-2.68 2.05-5.95 2.05-11.35L2.05-11.35Q2.2-14.8 3.78-17.45 5.35-20.1 7.98-21.63 10.6-23.15 13.8-23.25L13.8-23.25Q15.55-23.25 17.38-22.83 19.2-22.4 20.43-21.28 21.65-20.15 21.65-18.05L21.65-18.05Q21.65-16.6 20.75-15.38 19.85-14.15 18.25-14.15L18.25-14.15Q17.15-14.15 16.55-14.7 15.95-15.25 15.95-15.5L15.95-15.5Q15.95-15.6 16.38-15.93 16.8-16.25 17.2-16.82 17.6-17.4 17.6-18.25L17.6-18.25Q17.6-19.85 16.45-20.6 15.3-21.35 13.85-21.4L13.85-21.4Q11.65-21.4 10.33-20.5 9-19.6 8.3-18.13 7.6-16.65 7.38-14.9 7.15-13.15 7.15-11.5L7.15-11.5Q7.15-8.75 8-6.58 8.85-4.4 10.4-3.15 11.95-1.9 14.1-1.9L14.1-1.9Q16.3-1.9 17.8-2.85 19.3-3.8 20.55-5.65L20.55-5.65Q20.9-6.15 21.6-5.75L21.6-5.75Q21.95-5.55 22.1-5.2 22.25-4.85 22-4.5L22-4.5Q20.35-2.15 17.9-0.78 15.45 0.6 12.95 0.6ZM37.45 0.6L37.45 0.6Q33.95 0.6 31.32-1.05 28.7-2.7 27.25-5.35 25.8-8 25.8-11L25.8-11Q25.8-13.95 26.85-16.25 27.9-18.55 29.62-20.1 31.35-21.65 33.4-22.45 35.45-23.25 37.45-23.25L37.45-23.25Q40.95-23.25 43.57-21.6 46.2-19.95 47.65-17.3 49.1-14.65 49.1-11.65L49.1-11.65Q49.1-8.7 48.02-6.4 46.95-4.1 45.22-2.55 43.5-1 41.45-0.2 39.4 0.6 37.45 0.6ZM37.45-1.25L37.45-1.25Q39.9-1.25 41.32-2.7 42.75-4.15 43.37-6.53 44-8.9 44-11.65L44-11.65Q44-14.3 43.35-16.5 42.7-18.7 41.25-20.05 39.8-21.4 37.45-21.4L37.45-21.4Q35-21.4 33.55-19.98 32.1-18.55 31.5-16.23 30.9-13.9 30.9-11.1L30.9-11.1Q30.9-8.5 31.52-6.25 32.15-4 33.6-2.63 35.05-1.25 37.45-1.25ZM53.3 0.15L53.3 0.15Q52.95 0.15 52.72-0.18 52.5-0.5 52.5-0.85L52.5-0.85Q52.6-1.6 52.9-1.68 53.2-1.75 53.7-1.75L53.7-1.75Q55.1-1.75 55.6-2.23 56.1-2.7 56.17-3.5 56.25-4.3 56.25-5.15L56.25-5.15 56.25-16.6Q56.25-17.5 56.17-18.28 56.1-19.05 55.6-19.53 55.1-20 53.7-20L53.7-20Q53.25-20 52.87-20.13 52.5-20.25 52.5-21L52.5-21Q52.5-21.75 53.3-21.9L53.3-21.9Q55.6-22.25 56.82-22.6 58.05-22.95 58.67-23.2 59.3-23.45 59.8-23.5L59.8-23.5Q60.2-23.55 60.47-23.35 60.75-23.15 60.75-22.55L60.75-22.55 60.75-19.4 60.9-19.4Q61.9-20.35 62.95-21.23 64-22.1 65.42-22.68 66.84-23.25 68.95-23.25L68.95-23.25Q72.34-23.25 74.34-21.2 76.34-19.15 76.34-15.8L76.34-15.8 76.34-5.15Q76.34-4.3 76.42-3.5 76.5-2.7 77.02-2.23 77.55-1.75 78.95-1.75L78.95-1.75Q79.4-1.75 79.72-1.68 80.05-1.6 80.09-0.85L80.09-0.85Q80.09-0.5 79.9-0.18 79.7 0.15 79.3 0.15L79.3 0.15Q77.84 0.05 76.62 0.03 75.4 0 74.05 0L74.05 0Q72.7 0 71.5 0.03 70.3 0.05 68.84 0.15L68.84 0.15Q68.5 0.15 68.27-0.18 68.05-0.5 68.05-0.85L68.05-0.85Q68.09-1.6 68.42-1.68 68.75-1.75 69.2-1.75L69.2-1.75Q70.59-1.75 71.12-2.23 71.65-2.7 71.72-3.5 71.8-4.3 71.8-5.15L71.8-5.15 71.8-15.75Q71.8-17.4 71.07-18.45 70.34-19.5 69.25-20 68.15-20.5 67-20.5L67-20.5Q65.3-20.5 64-19.88 62.7-19.25 61.9-18.45 61.1-17.65 60.8-17.05L60.8-17.05 60.8-5.15Q60.8-4.3 60.87-3.5 60.95-2.7 61.47-2.23 62-1.75 63.4-1.75L63.4-1.75Q63.85-1.75 64.17-1.68 64.5-1.6 64.55-0.85L64.55-0.85Q64.55-0.5 64.34-0.18 64.15 0.15 63.75 0.15L63.75 0.15Q62.3 0.05 61.07 0.03 59.85 0 58.5 0L58.5 0Q57.15 0 55.95 0.03 54.75 0.05 53.3 0.15ZM82.99 0.15L82.99 0.15Q82.64 0.15 82.42-0.18 82.19-0.5 82.19-0.85L82.19-0.85Q82.29-1.6 82.59-1.68 82.89-1.75 83.39-1.75L83.39-1.75Q84.79-1.75 85.29-2.23 85.79-2.7 85.87-3.5 85.94-4.3 85.94-5.15L85.94-5.15 85.94-16.6Q85.94-17.5 85.87-18.28 85.79-19.05 85.29-19.53 84.79-20 83.39-20L83.39-20Q82.94-20 82.57-20.13 82.19-20.25 82.19-21L82.19-21Q82.19-21.75 82.99-21.9L82.99-21.9Q85.29-22.25 86.52-22.6 87.74-22.95 88.37-23.2 88.99-23.45 89.49-23.5L89.49-23.5Q89.89-23.55 90.17-23.35 90.44-23.15 90.44-22.55L90.44-22.55 90.44-19.4 90.59-19.4Q91.59-20.35 92.64-21.23 93.69-22.1 95.12-22.68 96.54-23.25 98.64-23.25L98.64-23.25Q102.04-23.25 104.04-21.2 106.04-19.15 106.04-15.8L106.04-15.8 106.04-5.15Q106.04-4.3 106.12-3.5 106.19-2.7 106.72-2.23 107.24-1.75 108.64-1.75L108.64-1.75Q109.09-1.75 109.42-1.68 109.74-1.6 109.79-0.85L109.79-0.85Q109.79-0.5 109.59-0.18 109.39 0.15 108.99 0.15L108.99 0.15Q107.54 0.05 106.32 0.03 105.09 0 103.74 0L103.74 0Q102.39 0 101.19 0.03 99.99 0.05 98.54 0.15L98.54 0.15Q98.19 0.15 97.97-0.18 97.74-0.5 97.74-0.85L97.74-0.85Q97.79-1.6 98.12-1.68 98.44-1.75 98.89-1.75L98.89-1.75Q100.29-1.75 100.82-2.23 101.34-2.7 101.42-3.5 101.49-4.3 101.49-5.15L101.49-5.15 101.49-15.75Q101.49-17.4 100.77-18.45 100.04-19.5 98.94-20 97.84-20.5 96.69-20.5L96.69-20.5Q94.99-20.5 93.69-19.88 92.39-19.25 91.59-18.45 90.79-17.65 90.49-17.05L90.49-17.05 90.49-5.15Q90.49-4.3 90.57-3.5 90.64-2.7 91.17-2.23 91.69-1.75 93.09-1.75L93.09-1.75Q93.54-1.75 93.87-1.68 94.19-1.6 94.24-0.85L94.24-0.85Q94.24-0.5 94.04-0.18 93.84 0.15 93.44 0.15L93.44 0.15Q91.99 0.05 90.77 0.03 89.54 0 88.19 0L88.19 0Q86.84 0 85.64 0.03 84.44 0.05 82.99 0.15ZM124.04 0.6L124.04 0.6Q120.19 0.6 117.57-1.05 114.94-2.7 113.64-5.45 112.34-8.2 112.34-11.45L112.34-11.45Q112.34-13.65 113.12-15.73 113.89-17.8 115.34-19.53 116.79-21.25 118.84-22.25 120.89-23.25 123.49-23.25L123.49-23.25Q128.09-23.25 130.42-20.88 132.74-18.5 133.09-14.85L133.09-14.85Q133.09-13.1 132.12-12.55 131.14-12 129.59-12L129.59-12 117.44-12Q117.44-9.1 118.24-6.83 119.04-4.55 120.77-3.23 122.49-1.9 125.34-1.9L125.34-1.9Q127.44-1.9 128.94-2.8 130.44-3.7 131.84-5.95L131.84-5.95Q132.24-6.45 132.94-6L132.94-6Q133.34-5.8 133.44-5.38 133.54-4.95 133.34-4.65L133.34-4.65Q131.79-2.2 129.44-0.8 127.09 0.6 124.04 0.6ZM117.44-13.9L117.44-13.9 125.59-13.9Q126.79-13.9 127.52-14.38 128.24-14.85 128.29-16L128.29-16Q128.29-18.15 127.12-19.83 125.94-21.5 123.49-21.5L123.49-21.5Q120.99-21.5 119.32-19.5 117.64-17.5 117.44-13.9ZM148.34 0.6L148.34 0.6Q143.19 0.6 140.31-2.68 137.44-5.95 137.44-11.35L137.44-11.35Q137.59-14.8 139.16-17.45 140.74-20.1 143.36-21.63 145.99-23.15 149.19-23.25L149.19-23.25Q150.94-23.25 152.76-22.83 154.59-22.4 155.81-21.28 157.04-20.15 157.04-18.05L157.04-18.05Q157.04-16.6 156.14-15.38 155.24-14.15 153.64-14.15L153.64-14.15Q152.54-14.15 151.94-14.7 151.34-15.25 151.34-15.5L151.34-15.5Q151.34-15.6 151.76-15.93 152.19-16.25 152.59-16.82 152.99-17.4 152.99-18.25L152.99-18.25Q152.99-19.85 151.84-20.6 150.69-21.35 149.24-21.4L149.24-21.4Q147.04-21.4 145.71-20.5 144.39-19.6 143.69-18.13 142.99-16.65 142.76-14.9 142.54-13.15 142.54-11.5L142.54-11.5Q142.54-8.75 143.39-6.58 144.24-4.4 145.79-3.15 147.34-1.9 149.49-1.9L149.49-1.9Q151.69-1.9 153.19-2.85 154.69-3.8 155.94-5.65L155.94-5.65Q156.29-6.15 156.99-5.75L156.99-5.75Q157.34-5.55 157.49-5.2 157.64-4.85 157.39-4.5L157.39-4.5Q155.74-2.15 153.29-0.78 150.84 0.6 148.34 0.6ZM169.94 0.85L169.94 0.85Q168.44 0.85 167.09 0.1 165.74-0.65 164.86-2.2 163.99-3.75 163.99-6.1L163.99-6.1 163.99-20.8 161.09-20.7Q160.74-20.7 160.56-20.98 160.39-21.25 160.39-21.6L160.39-21.6Q160.39-22.6 161.09-22.75L161.09-22.75Q162.94-23.1 163.89-23.93 164.84-24.75 165.36-25.9 165.89-27.05 166.34-28.4L166.34-28.4Q166.49-28.8 166.79-28.93 167.09-29.05 167.44-29.05L167.44-29.05Q167.74-29.05 168.11-28.9 168.49-28.75 168.49-28.35L168.49-28.35 168.14-22.65 173.99-23Q174.44-23.05 174.59-22.75 174.74-22.45 174.74-22.05L174.74-22.05Q174.74-21.55 174.56-21.05 174.39-20.55 174.14-20.55L174.14-20.55 168.54-20.7 168.54-5.5Q168.54-4.05 169.16-2.85 169.79-1.65 171.44-1.65L171.44-1.65Q171.99-1.65 172.69-1.75 173.39-1.85 174.19-2.2L174.19-2.2Q174.39-2.3 174.59-2.38 174.79-2.45 174.99-2.45L174.99-2.45Q175.39-2.45 175.59-2.13 175.79-1.8 175.94-1.45L175.94-1.45Q176.09-1 175.69-0.75L175.69-0.75Q174.14 0.25 172.84 0.55 171.54 0.85 169.94 0.85ZM192.73 0.5L190.63 0.5Q189.38-2.25 188.13-5.5 186.88-8.75 185.68-11.85 184.48-14.95 183.38-17.25L183.38-17.25Q182.58-19.1 181.83-19.88 181.08-20.65 179.58-20.85L179.58-20.85Q178.93-20.95 178.71-21.05 178.48-21.15 178.43-21.8L178.43-21.8Q178.38-22.65 178.91-22.73 179.43-22.8 180.18-22.85L180.18-22.85Q183.28-23 185.03-21.95 186.78-20.9 187.88-18.4L187.88-18.4Q188.58-16.85 189.46-14.55 190.33-12.25 191.28-9.9 192.23-7.55 193.13-5.65L193.13-5.65 193.28-5.65 198.23-18.75Q198.73-20.2 198.28-20.55 197.83-20.9 196.33-20.9L196.33-20.9Q195.88-20.9 195.58-20.98 195.28-21.05 195.23-21.8L195.23-21.8Q195.23-22.1 195.41-22.45 195.58-22.8 195.93-22.8L195.93-22.8Q197.38-22.75 198.43-22.7 199.48-22.65 200.78-22.65L200.78-22.65Q201.68-22.65 202.23-22.68 202.78-22.7 203.38-22.73 203.98-22.75 204.93-22.8L204.93-22.8Q205.33-22.8 205.51-22.45 205.68-22.1 205.68-21.8L205.68-21.8Q205.63-21.05 205.31-20.98 204.98-20.9 204.58-20.9L204.58-20.9Q202.93-20.9 201.96-20.3 200.98-19.7 200.28-17.95L200.28-17.95Q200.28-17.95 199.76-16.63 199.23-15.3 198.38-13.2 197.53-11.1 196.58-8.75 195.63-6.4 194.76-4.3 193.88-2.2 193.33-0.85 192.78 0.5 192.73 0.5L192.73 0.5ZM217.88 0.6L217.88 0.6Q214.03 0.6 211.41-1.05 208.78-2.7 207.48-5.45 206.18-8.2 206.18-11.45L206.18-11.45Q206.18-13.65 206.96-15.73 207.73-17.8 209.18-19.53 210.63-21.25 212.68-22.25 214.73-23.25 217.33-23.25L217.33-23.25Q221.93-23.25 224.26-20.88 226.58-18.5 226.93-14.85L226.93-14.85Q226.93-13.1 225.96-12.55 224.98-12 223.43-12L223.43-12 211.28-12Q211.28-9.1 212.08-6.83 212.88-4.55 214.61-3.23 216.33-1.9 219.18-1.9L219.18-1.9Q221.28-1.9 222.78-2.8 224.28-3.7 225.68-5.95L225.68-5.95Q226.08-6.45 226.78-6L226.78-6Q227.18-5.8 227.28-5.38 227.38-4.95 227.18-4.65L227.18-4.65Q225.63-2.2 223.28-0.8 220.93 0.6 217.88 0.6ZM211.28-13.9L211.28-13.9 219.43-13.9Q220.63-13.9 221.36-14.38 222.08-14.85 222.13-16L222.13-16Q222.13-18.15 220.96-19.83 219.78-21.5 217.33-21.5L217.33-21.5Q214.83-21.5 213.16-19.5 211.48-17.5 211.28-13.9ZM231.68 0.15L231.68 0.15Q231.33 0.15 231.1-0.18 230.88-0.5 230.88-0.85L230.88-0.85Q230.98-1.6 231.28-1.68 231.58-1.75 232.08-1.75L232.08-1.75Q233.48-1.75 233.98-2.23 234.48-2.7 234.55-3.5 234.63-4.3 234.63-5.15L234.63-5.15 234.63-16.6Q234.63-17.5 234.55-18.28 234.48-19.05 233.98-19.53 233.48-20 232.08-20L232.08-20Q231.63-20 231.25-20.13 230.88-20.25 230.88-21L230.88-21Q230.88-21.75 231.68-21.9L231.68-21.9Q233.98-22.25 235.2-22.6 236.43-22.95 237.05-23.2 237.68-23.45 238.18-23.5L238.18-23.5Q238.58-23.55 238.85-23.35 239.13-23.15 239.13-22.55L239.13-22.55 239.13-19.45 239.28-19.45Q240.98-21.1 242.78-22.18 244.58-23.25 246.08-23.25L246.08-23.25Q247.83-23.25 248.75-21.95 249.68-20.65 249.68-19.2L249.68-19.2Q249.68-17.95 248.88-16.78 248.08-15.6 246.48-15.6L246.48-15.6Q245.68-15.6 245.2-15.93 244.73-16.25 244.68-16.4L244.68-16.4Q244.68-16.5 245.15-17 245.63-17.5 245.63-18.25L245.63-18.25Q245.63-19.15 245.15-19.7 244.68-20.25 243.88-20.25L243.88-20.25Q243.03-20.25 241.7-19.4 240.38-18.55 239.18-17.35L239.18-17.35 239.18-5.15Q239.18-4.3 239.25-3.5 239.33-2.7 239.85-2.23 240.38-1.75 241.78-1.75L241.78-1.75Q242.23-1.75 242.55-1.68 242.88-1.6 242.93-0.85L242.93-0.85Q242.93-0.5 242.73-0.18 242.53 0.15 242.13 0.15L242.13 0.15Q240.68 0.05 239.45 0.03 238.23 0 236.88 0L236.88 0Q235.53 0 234.33 0.03 233.13 0.05 231.68 0.15ZM261.38 0.6L261.38 0.6Q257.53 0.6 254.95-0.78 252.38-2.15 252.38-4.75L252.38-4.75Q252.38-6.2 253.25-7.1 254.13-8 255.53-8L255.53-8Q256.43-8 257-7.53 257.58-7.05 257.58-6.85L257.58-6.85Q257.58-6.7 257-6.18 256.43-5.65 256.43-4.5L256.43-4.5Q256.43-3.1 257.75-2.18 259.08-1.25 261.78-1.25L261.78-1.25Q264.13-1.25 265.45-2.27 266.78-3.3 266.78-5.15L266.78-5.15Q266.78-6.65 265.8-7.48 264.83-8.3 263.3-8.8 261.78-9.3 260.05-9.8 258.33-10.3 256.78-11.05 255.23-11.8 254.25-13.13 253.28-14.45 253.28-16.65L253.28-16.65Q253.28-18.9 254.63-20.35 255.98-21.8 258.08-22.53 260.18-23.25 262.33-23.25L262.33-23.25Q264.18-23.25 265.83-22.73 267.48-22.2 268.55-21.15 269.63-20.1 269.63-18.5L269.63-18.5Q269.63-17.25 268.83-16.25 268.03-15.25 266.63-15.25L266.63-15.25Q265.73-15.25 265.15-15.73 264.58-16.2 264.58-16.4L264.58-16.4Q264.58-16.5 264.95-16.78 265.33-17.05 265.68-17.53 266.03-18 266.03-18.75L266.03-18.75Q265.93-20.2 264.63-20.9 263.33-21.6 261.73-21.6L261.73-21.6Q259.98-21.6 258.48-20.75 256.98-19.9 256.98-18.3L256.98-18.3Q256.98-16.85 257.6-16.05 258.23-15.25 259.6-14.68 260.98-14.1 263.18-13.4L263.18-13.4Q265.38-12.7 267.05-11.95 268.73-11.2 269.65-9.98 270.58-8.75 270.58-6.65L270.58-6.65Q270.58-4.55 269.38-2.9 268.18-1.25 266.1-0.33 264.03 0.6 261.38 0.6ZM286.37 0.6L286.37 0.6Q282.52 0.6 279.9-1.05 277.27-2.7 275.97-5.45 274.67-8.2 274.67-11.45L274.67-11.45Q274.67-13.65 275.45-15.73 276.22-17.8 277.67-19.53 279.12-21.25 281.17-22.25 283.22-23.25 285.82-23.25L285.82-23.25Q290.42-23.25 292.75-20.88 295.07-18.5 295.42-14.85L295.42-14.85Q295.42-13.1 294.45-12.55 293.47-12 291.92-12L291.92-12 279.77-12Q279.77-9.1 280.57-6.83 281.37-4.55 283.1-3.23 284.82-1.9 287.67-1.9L287.67-1.9Q289.77-1.9 291.27-2.8 292.77-3.7 294.17-5.95L294.17-5.95Q294.57-6.45 295.27-6L295.27-6Q295.67-5.8 295.77-5.38 295.87-4.95 295.67-4.65L295.67-4.65Q294.12-2.2 291.77-0.8 289.42 0.6 286.37 0.6ZM279.77-13.9L279.77-13.9 287.92-13.9Q289.12-13.9 289.85-14.38 290.57-14.85 290.62-16L290.62-16Q290.62-18.15 289.45-19.83 288.27-21.5 285.82-21.5L285.82-21.5Q283.32-21.5 281.65-19.5 279.97-17.5 279.77-13.9Z" opacity="1" transform="matrix(1,0,0,1,0,0)" fill="#485f99" class="wordmark-text-0" data-fill-palette-color="primary" id="text-0"></path></svg></g></svg></g><g transform="matrix(1,0,0,1,0,49.75739754120837)"><svg viewBox="0 0 232.209792 17.656784727957323" height="17.656784727957323" width="232.209792"><g transform="matrix(1,0,0,1,0,0)"><svg width="232.209792" viewBox="1.4 -36 478 36.35" height="17.656784727957323" data-palette-color="#485f99"><path d="M24.25-29L15.65 0 11.25 0 1.4-35 5.65-35 13.45-4.85 22.05-35 26.5-35 35.05-4.9 42.9-35 47.1-35 37.25 0 32.85 0 24.25-29ZM61.4 0.35L61.4 0.35Q57.9 0.35 55.17-1.35 52.45-3.05 50.9-6 49.35-8.95 49.35-12.75L49.35-12.75Q49.35-16.4 50.9-19.25 52.45-22.1 55.15-23.73 57.85-25.35 61.3-25.35L61.3-25.35Q64.7-25.35 67.37-23.85 70.05-22.35 71.55-19.7 73.05-17.05 72.95-13.65L72.95-13.65Q72.95-13.1 72.9-12.5 72.85-11.9 72.8-11.2L72.8-11.2 53.45-11.2Q53.55-8.85 54.6-7.05 55.65-5.25 57.37-4.23 59.1-3.2 61.3-3.2L61.3-3.2Q64.2-3.2 66.22-4.3 68.25-5.4 69.15-7.45L69.15-7.45 72.4-6.15Q70.9-3 68.05-1.33 65.2 0.35 61.4 0.35ZM53.5-14.45L68.85-14.45Q68.9-16.6 67.92-18.25 66.95-19.9 65.2-20.85 63.45-21.8 61.15-21.8L61.15-21.8Q59.15-21.8 57.5-20.85 55.85-19.9 54.77-18.23 53.7-16.55 53.5-14.45L53.5-14.45ZM112.19 0L108.74 0 108.44-4.5Q107.39-2.2 105.34-0.93 103.29 0.35 100.14 0.35L100.14 0.35Q97.44 0.35 95.54-0.5 93.64-1.35 92.62-2.93 91.59-4.5 91.59-6.65L91.59-6.65Q91.59-9.8 93.94-11.83 96.29-13.85 100.74-14.3L100.74-14.3 108.44-15.15 108.44-17.15Q108.44-19.25 106.89-20.53 105.34-21.8 102.69-21.8L102.69-21.8Q100.09-21.8 98.37-20.6 96.64-19.4 95.99-17.15L95.99-17.15 92.59-18.35Q93.59-21.65 96.27-23.5 98.94-25.35 102.79-25.35L102.79-25.35Q107.24-25.35 109.72-23.08 112.19-20.8 112.19-16.9L112.19-16.9 112.19 0ZM108.44-11.15L108.44-11.95 100.69-11.05Q98.19-10.75 96.89-9.68 95.59-8.6 95.59-6.85L95.59-6.85Q95.59-5.1 96.87-4.05 98.14-3 100.54-3L100.54-3Q103.29-3 105.04-4.1 106.79-5.2 107.62-7.08 108.44-8.95 108.44-11.15L108.44-11.15ZM119.49 0L119.49-25 122.94-25 123.14-21.35Q124.14-22.7 125.57-23.65 126.99-24.6 128.72-24.98 130.44-25.35 132.39-25L132.39-25 132.39-21.25Q130.29-21.65 128.62-21.25 126.94-20.85 125.74-19.75 124.54-18.65 123.89-16.98 123.24-15.3 123.24-13.1L123.24-13.1 123.24 0 119.49 0ZM147.49 0.35L147.49 0.35Q143.99 0.35 141.26-1.35 138.54-3.05 136.99-6 135.44-8.95 135.44-12.75L135.44-12.75Q135.44-16.4 136.99-19.25 138.54-22.1 141.24-23.73 143.94-25.35 147.39-25.35L147.39-25.35Q150.79-25.35 153.46-23.85 156.14-22.35 157.64-19.7 159.14-17.05 159.04-13.65L159.04-13.65Q159.04-13.1 158.99-12.5 158.94-11.9 158.89-11.2L158.89-11.2 139.54-11.2Q139.64-8.85 140.69-7.05 141.74-5.25 143.46-4.23 145.19-3.2 147.39-3.2L147.39-3.2Q150.29-3.2 152.31-4.3 154.34-5.4 155.24-7.45L155.24-7.45 158.49-6.15Q156.99-3 154.14-1.33 151.29 0.35 147.49 0.35ZM139.59-14.45L154.94-14.45Q154.99-16.6 154.01-18.25 153.04-19.9 151.29-20.85 149.54-21.8 147.24-21.8L147.24-21.8Q145.24-21.8 143.59-20.85 141.94-19.9 140.86-18.23 139.79-16.55 139.59-14.45L139.59-14.45ZM198.28 0L194.83 0 194.53-4.5Q193.48-2.2 191.43-0.93 189.38 0.35 186.23 0.35L186.23 0.35Q183.53 0.35 181.63-0.5 179.73-1.35 178.71-2.93 177.68-4.5 177.68-6.65L177.68-6.65Q177.68-9.8 180.03-11.83 182.38-13.85 186.83-14.3L186.83-14.3 194.53-15.15 194.53-17.15Q194.53-19.25 192.98-20.53 191.43-21.8 188.78-21.8L188.78-21.8Q186.18-21.8 184.46-20.6 182.73-19.4 182.08-17.15L182.08-17.15 178.68-18.35Q179.68-21.65 182.36-23.5 185.03-25.35 188.88-25.35L188.88-25.35Q193.33-25.35 195.81-23.08 198.28-20.8 198.28-16.9L198.28-16.9 198.28 0ZM194.53-11.15L194.53-11.95 186.78-11.05Q184.28-10.75 182.98-9.68 181.68-8.6 181.68-6.85L181.68-6.85Q181.68-5.1 182.96-4.05 184.23-3 186.63-3L186.63-3Q189.38-3 191.13-4.1 192.88-5.2 193.71-7.08 194.53-8.95 194.53-11.15L194.53-11.15ZM205.58 0L205.58-36 209.33-36 209.33 0 205.58 0ZM216.98 0L216.98-36 220.73-36 220.73 0 216.98 0ZM253.02 0.35L253.02 0.35Q249.37 0.35 246.62-1.25 243.87-2.85 242.35-5.73 240.82-8.6 240.82-12.4L240.82-12.4Q240.82-16.25 242.35-19.18 243.87-22.1 246.62-23.73 249.37-25.35 253.02-25.35L253.02-25.35Q256.87-25.35 259.77-23.58 262.67-21.8 263.97-18.65L263.97-18.65 260.52-17.45Q259.77-19.45 257.8-20.63 255.82-21.8 253.22-21.8L253.22-21.8Q250.67-21.8 248.8-20.65 246.92-19.5 245.9-17.4 244.87-15.3 244.87-12.45L244.87-12.45Q244.87-8.25 247.12-5.73 249.37-3.2 253.12-3.2L253.12-3.2Q255.67-3.2 257.67-4.35 259.67-5.5 260.62-7.45L260.62-7.45 264.02-6.25Q262.67-3.15 259.77-1.4 256.87 0.35 253.02 0.35ZM280.97 0.35L280.97 0.35Q277.42 0.35 274.62-1.2 271.82-2.75 270.22-5.63 268.62-8.5 268.62-12.45L268.62-12.45Q268.62-16.45 270.25-19.35 271.87-22.25 274.7-23.8 277.52-25.35 281.07-25.35L281.07-25.35Q284.62-25.35 287.45-23.8 290.27-22.25 291.9-19.38 293.52-16.5 293.52-12.55L293.52-12.55Q293.52-8.55 291.87-5.65 290.22-2.75 287.37-1.2 284.52 0.35 280.97 0.35ZM280.92-3.2L280.92-3.2Q283.12-3.2 285.07-4.17 287.02-5.15 288.25-7.23 289.47-9.3 289.47-12.5L289.47-12.5Q289.47-15.75 288.27-17.8 287.07-19.85 285.15-20.83 283.22-21.8 281.02-21.8L281.02-21.8Q278.82-21.8 276.92-20.83 275.02-19.85 273.85-17.78 272.67-15.7 272.67-12.5L272.67-12.5Q272.67-9.25 273.82-7.2 274.97-5.15 276.85-4.17 278.72-3.2 280.92-3.2ZM299.67 0L299.67-25 303.12-25 303.32-21.45Q304.52-23.3 306.47-24.33 308.42-25.35 311.02-25.35L311.02-25.35Q313.87-25.35 316.02-24.13 318.17-22.9 319.37-20.48 320.57-18.05 320.57-14.4L320.57-14.4 320.57 0 316.82 0 316.82-13.95Q316.82-17.85 315.14-19.88 313.47-21.9 310.32-21.9L310.32-21.9Q307.07-21.9 305.24-19.75 303.42-17.6 303.42-13.4L303.42-13.4 303.42 0 299.67 0ZM327.82 0L327.82-25 331.27-25 331.47-21.45Q332.67-23.3 334.62-24.33 336.57-25.35 339.17-25.35L339.17-25.35Q342.02-25.35 344.17-24.13 346.32-22.9 347.52-20.48 348.72-18.05 348.72-14.4L348.72-14.4 348.72 0 344.97 0 344.97-13.95Q344.97-17.85 343.29-19.88 341.62-21.9 338.47-21.9L338.47-21.9Q335.22-21.9 333.39-19.75 331.57-17.6 331.57-13.4L331.57-13.4 331.57 0 327.82 0ZM366.46 0.35L366.46 0.35Q362.96 0.35 360.24-1.35 357.51-3.05 355.96-6 354.41-8.95 354.41-12.75L354.41-12.75Q354.41-16.4 355.96-19.25 357.51-22.1 360.21-23.73 362.91-25.35 366.36-25.35L366.36-25.35Q369.76-25.35 372.44-23.85 375.11-22.35 376.61-19.7 378.11-17.05 378.01-13.65L378.01-13.65Q378.01-13.1 377.96-12.5 377.91-11.9 377.86-11.2L377.86-11.2 358.51-11.2Q358.61-8.85 359.66-7.05 360.71-5.25 362.44-4.23 364.16-3.2 366.36-3.2L366.36-3.2Q369.26-3.2 371.29-4.3 373.31-5.4 374.21-7.45L374.21-7.45 377.46-6.15Q375.96-3 373.11-1.33 370.26 0.35 366.46 0.35ZM358.56-14.45L373.91-14.45Q373.96-16.6 372.99-18.25 372.01-19.9 370.26-20.85 368.51-21.8 366.21-21.8L366.21-21.8Q364.21-21.8 362.56-20.85 360.91-19.9 359.84-18.23 358.76-16.55 358.56-14.45L358.56-14.45ZM394.81 0.35L394.81 0.35Q391.16 0.35 388.41-1.25 385.66-2.85 384.13-5.73 382.61-8.6 382.61-12.4L382.61-12.4Q382.61-16.25 384.13-19.18 385.66-22.1 388.41-23.73 391.16-25.35 394.81-25.35L394.81-25.35Q398.66-25.35 401.56-23.58 404.46-21.8 405.76-18.65L405.76-18.65 402.31-17.45Q401.56-19.45 399.58-20.63 397.61-21.8 395.01-21.8L395.01-21.8Q392.46-21.8 390.58-20.65 388.71-19.5 387.69-17.4 386.66-15.3 386.66-12.45L386.66-12.45Q386.66-8.25 388.91-5.73 391.16-3.2 394.91-3.2L394.91-3.2Q397.46-3.2 399.46-4.35 401.46-5.5 402.41-7.45L402.41-7.45 405.81-6.25Q404.46-3.15 401.56-1.4 398.66 0.35 394.81 0.35ZM408.81-25L412.56-25 412.56-32 416.31-32 416.31-25 422.96-25 422.96-21.5 416.31-21.5 416.31-8.05Q416.31-5.75 417.28-4.7 418.26-3.65 419.78-3.45 421.31-3.25 422.96-3.45L422.96-3.45 422.96-0.2Q421.01 0.25 419.13 0.05 417.26-0.15 415.78-1.07 414.31-2 413.43-3.7 412.56-5.4 412.56-8.05L412.56-8.05 412.56-21.5 408.81-21.5 408.81-25ZM439.06 0.35L439.06 0.35Q435.56 0.35 432.83-1.35 430.11-3.05 428.56-6 427.01-8.95 427.01-12.75L427.01-12.75Q427.01-16.4 428.56-19.25 430.11-22.1 432.81-23.73 435.51-25.35 438.96-25.35L438.96-25.35Q442.36-25.35 445.03-23.85 447.71-22.35 449.21-19.7 450.71-17.05 450.61-13.65L450.61-13.65Q450.61-13.1 450.56-12.5 450.51-11.9 450.46-11.2L450.46-11.2 431.11-11.2Q431.21-8.85 432.26-7.05 433.31-5.25 435.03-4.23 436.76-3.2 438.96-3.2L438.96-3.2Q441.86-3.2 443.88-4.3 445.91-5.4 446.81-7.45L446.81-7.45 450.06-6.15Q448.56-3 445.71-1.33 442.86 0.35 439.06 0.35ZM431.16-14.45L446.51-14.45Q446.56-16.6 445.58-18.25 444.61-19.9 442.86-20.85 441.11-21.8 438.81-21.8L438.81-21.8Q436.81-21.8 435.16-20.85 433.51-19.9 432.43-18.23 431.36-16.55 431.16-14.45L431.16-14.45ZM476.05-19.95L476.05-19.95 475.65-19.9 475.65-36 479.4-36 479.4 0 475.95 0 475.7-4.65Q474.55-2.55 472.28-1.1 470 0.35 466.65 0.35L466.65 0.35Q463.2 0.35 460.63-1.23 458.05-2.8 456.63-5.7 455.2-8.6 455.2-12.5L455.2-12.5Q455.2-16.4 456.63-19.28 458.05-22.15 460.63-23.75 463.2-25.35 466.65-25.35L466.65-25.35Q470.2-25.35 472.55-23.8 474.9-22.25 476.05-19.95ZM459.25-12.5L459.25-12.5Q459.25-8.2 461.45-5.68 463.65-3.15 467.45-3.15L467.45-3.15Q469.8-3.15 471.65-4.25 473.5-5.35 474.58-7.45 475.65-9.55 475.65-12.5L475.65-12.5Q475.65-15.45 474.58-17.53 473.5-19.6 471.65-20.73 469.8-21.85 467.45-21.85L467.45-21.85Q463.7-21.85 461.48-19.33 459.25-16.8 459.25-12.5Z" opacity="1" transform="matrix(1,0,0,1,0,0)" fill="#485f99" class="slogan-text-1" data-fill-palette-color="secondary" id="text-1"></path></svg></g></svg></g></svg></g></svg></g><g><svg viewBox="0 0 166.17252409678264 166.17252409678264" height="166.17252409678264" width="166.17252409678264"><g><svg></svg></g><g id="icon-0"><svg viewBox="0 0 166.17252409678264 166.17252409678264" height="166.17252409678264" width="166.17252409678264"><g><path d="M0 83.086c0-45.887 37.199-83.086 83.086-83.086 45.887 0 83.086 37.199 83.087 83.086 0 45.887-37.199 83.086-83.087 83.087-45.887 0-83.086-37.199-83.086-83.087zM83.086 162.542c43.882 0 79.456-35.574 79.456-79.456 0-43.882-35.574-79.456-79.456-79.456-43.882 0-79.456 35.574-79.456 79.456 0 43.882 35.574 79.456 79.456 79.456z" data-fill-palette-color="accent" fill="#d64742" stroke="transparent"></path></g><g transform="matrix(1,0,0,1,33.14220024336881,37.64956863158707)"><svg viewBox="0 0 99.88812361004501 90.87338683360849" height="90.87338683360849" width="99.88812361004501"><g><svg xmlns="http://www.w3.org/2000/svg" xmlns:xlink="http://www.w3.org/1999/xlink" version="1.1" x="0" y="0" viewBox="3.675 7.5 82.55 75.1" style="enable-background:new 0 0 90 90;" xml:space="preserve" height="90.87338683360849" width="99.88812361004501" class="icon-dxe-0" data-fill-palette-color="accent" id="dxe-0"><g fill="#d64742" data-fill-palette-color="accent"><g fill="#d64742" data-fill-palette-color="accent"><path d="M59.1 82.6H30.9C26.2 82.6 21.9 80.1 19.6 76.1L5.4 51.5C3.1 47.5 3.1 42.4 5.4 38.4L19.5 14C21.8 10 26.2 7.5 30.8 7.5H59.1C63.8 7.5 68.1 10 70.4 14L84.5 38.5C86.8 42.5 86.8 47.6 84.5 51.6L70.5 76C68.1 80 63.8 82.6 59.1 82.6M6.1 38.9L6.8 39.3C4.8 42.8 4.8 47.2 6.8 50.7L21 75.2C23 78.7 26.8 80.9 30.9 80.9H59.2C63.3 80.9 67.1 78.7 69.1 75.2L83.2 50.7C85.2 47.2 85.2 42.8 83.2 39.3L69 14.8C67 11.3 63.2 9.1 59.1 9.1H30.9C26.8 9.1 23 11.3 21 14.8L6.8 39.3z" fill="#d64742" data-fill-palette-color="accent"></path></g><g fill="#d64742" data-fill-palette-color="accent"><g fill="#d64742" data-fill-palette-color="accent"><path d="M35.1 51.5C31.5 51.5 28.6 48.6 28.6 45S31.5 38.5 35.1 38.5 41.6 41.4 41.6 45 38.7 51.5 35.1 51.5M35.1 40C32.4 40 30.1 42.2 30.1 45S32.3 50 35.1 50C37.8 50 40.1 47.8 40.1 45S37.9 40 35.1 40" fill="#d64742" data-fill-palette-color="accent"></path></g><g fill="#d64742" data-fill-palette-color="accent"><path d="M54.9 39.6C51.3 39.6 48.4 36.7 48.4 33.1S51.3 26.6 54.9 26.6 61.4 29.5 61.4 33.1 58.5 39.6 54.9 39.6M54.9 28.1C52.2 28.1 49.9 30.3 49.9 33.1 49.9 35.8 52.1 38.1 54.9 38.1 57.6 38.1 59.9 35.9 59.9 33.1S57.6 28.1 54.9 28.1" fill="#d64742" data-fill-palette-color="accent"></path></g><g fill="#d64742" data-fill-palette-color="accent"><path d="M54.9 63.4C51.3 63.4 48.4 60.5 48.4 56.9S51.3 50.4 54.9 50.4 61.4 53.3 61.4 56.9 58.5 63.4 54.9 63.4M54.9 51.9C52.2 51.9 49.9 54.1 49.9 56.9 49.9 59.6 52.1 61.9 54.9 61.9S59.9 59.7 59.9 56.9C59.9 54.2 57.6 51.9 54.9 51.9" fill="#d64742" data-fill-palette-color="accent"></path></g><g fill="#d64742" data-fill-palette-color="accent"><path d="M40.2 42.7C39.9 42.7 39.7 42.6 39.6 42.3 39.4 41.9 39.5 41.5 39.9 41.3L49.7 35.4C50.1 35.2 50.5 35.3 50.7 35.7S50.8 36.5 50.4 36.7L40.6 42.6C40.5 42.6 40.3 42.7 40.2 42.7" fill="#d64742" data-fill-palette-color="accent"></path></g><g fill="#d64742" data-fill-palette-color="accent"><path d="M50 54.7C49.9 54.7 49.7 54.7 49.6 54.6L39.6 48.6C39.2 48.4 39.1 47.9 39.3 47.6 39.5 47.2 40 47.1 40.3 47.3L50.3 53.3C50.7 53.5 50.8 54 50.6 54.3 50.5 54.5 50.3 54.7 50 54.7" fill="#d64742" data-fill-palette-color="accent"></path></g></g></g></svg></g></svg></g></svg></g></svg></g></svg></g><defs></defs></svg><rect width="395.52" height="113.18185979738523" fill="none" stroke="none" visibility="hidden"></rect></g></svg></g></svg>