<svg xmlns="http://www.w3.org/2000/svg" version="1.1" xmlns:xlink="http://www.w3.org/1999/xlink" xmlns:svgjs="http://svgjs.dev/svgjs" width="2000" height="479" viewBox="0 0 2000 479"><g transform="matrix(1,0,0,1,-1.2121212121212466,-1.0609165172577661)"><svg viewBox="0 0 396 95" data-background-color="#ffffff" preserveAspectRatio="xMidYMid meet" height="479" width="2000" xmlns="http://www.w3.org/2000/svg" xmlns:xlink="http://www.w3.org/1999/xlink"><g id="tight-bounds" transform="matrix(1,0,0,1,0.2400000000000091,0.21041141782774275)"><svg viewBox="0 0 395.52 94.57917716434454" height="94.57917716434454" width="395.52"><g><svg viewBox="0 0 539.3666593980447 128.9766758589916" height="94.57917716434454" width="395.52"><g transform="matrix(1,0,0,1,0,17.825285882103763)"><svg viewBox="0 0 395.52 93.32610409478407" height="93.32610409478407" width="395.52"><g id="textblocktransform"><svg viewBox="0 0 395.52 93.32610409478407" height="93.32610409478407" width="395.52" id="textblock"><g><svg viewBox="0 0 395.52 62.98812051649928" height="62.98812051649928" width="395.52"><g transform="matrix(1,0,0,1,0,0)"><svg width="395.52" viewBox="3.44 -41.19 340.31 54.199999999999996" height="62.98812051649928" data-palette-color="#6b488d"><path d="M47.07-16.46L47.07-16.46Q47.07-13.55 46.39-10.4 45.7-7.25 44.47-4.26 43.24-1.27 41.5 1.39 39.77 4.05 37.65 6.01L37.65 6.01 34.55 4.32Q35.25 3.05 35.84 1.46 36.43-0.12 36.91-1.88 37.4-3.64 37.77-5.49 38.13-7.35 38.39-9.19 38.65-11.04 38.77-12.77 38.89-14.5 38.89-16.02L38.89-16.02Q38.89-16.87 38.84-17.87 38.79-18.87 38.64-19.87 38.48-20.87 38.16-21.79 37.84-22.71 37.29-23.43 36.74-24.15 35.93-24.57 35.11-25 33.96-25L33.96-25Q32.84-25 32.04-24.4 31.25-23.8 30.69-22.85 30.13-21.9 29.8-20.7 29.47-19.51 29.3-18.3 29.13-17.09 29.06-15.99 29-14.89 29-14.14L29-14.14 29 0 20.78 0 20.78-13.13Q20.78-13.99 20.8-15.2 20.83-16.41 20.74-17.72 20.65-19.04 20.42-20.35 20.19-21.66 19.69-22.68 19.19-23.71 18.33-24.35 17.48-25 16.19-25L16.19-25Q15.09-25 14.34-24.39 13.6-23.78 13.1-22.81 12.6-21.85 12.32-20.64 12.04-19.43 11.9-18.23 11.77-17.02 11.74-15.93 11.72-14.84 11.72-14.14L11.72-14.14 11.72 0 3.44 0 3.44-28.2 6.62-28.2 9.64-21.63Q10.67-25.05 12.88-26.97 15.09-28.88 18.75-28.88L18.75-28.88Q22.05-28.88 24.22-27.51 26.39-26.15 27.64-23.07L27.64-23.07Q28.34-24.41 29.21-25.49 30.08-26.56 31.14-27.32 32.2-28.08 33.5-28.48 34.79-28.88 36.35-28.88L36.35-28.88Q39.23-28.88 41.27-27.94 43.31-27 44.6-25.34 45.9-23.68 46.48-21.4 47.07-19.12 47.07-16.46ZM59.35-13.38L59.35-13.38Q60.86-13.04 62.38-12.84 63.89-12.65 65.43-12.65L65.43-12.65Q67.04-12.65 68.42-12.95 69.8-13.26 70.81-13.98 71.82-14.7 72.41-15.89 73-17.09 73-18.87L73-18.87Q73-20.31 72.6-21.51 72.21-22.71 71.45-23.56 70.68-24.41 69.55-24.89 68.43-25.37 66.94-25.37L66.94-25.37Q65.55-25.37 64.44-24.85 63.33-24.34 62.49-23.47 61.64-22.61 61.04-21.46 60.45-20.31 60.06-19.07 59.67-17.82 59.49-16.55 59.32-15.28 59.32-14.16L59.32-14.16Q59.32-13.96 59.32-13.77 59.32-13.57 59.35-13.38ZM79.69-18.95L79.69-18.95Q79.69-17.21 79.12-15.86 78.56-14.5 77.6-13.48 76.63-12.45 75.36-11.74 74.09-11.04 72.65-10.58 71.21-10.13 69.69-9.94 68.16-9.74 66.72-9.74L66.72-9.74Q64.89-9.74 63.11-10 61.33-10.25 59.59-10.82L59.59-10.82Q59.86-9.2 60.45-7.75 61.03-6.3 62.01-5.21 62.99-4.13 64.41-3.49 65.84-2.86 67.8-2.86L67.8-2.86Q69.09-2.86 70.26-3.25 71.43-3.64 72.41-4.35 73.39-5.05 74.13-6.03 74.88-7.01 75.34-8.2L75.34-8.2 78.9-6.88Q78.1-4.96 76.69-3.55 75.29-2.15 73.52-1.23 71.75-0.32 69.76 0.12 67.77 0.56 65.82 0.56L65.82 0.56Q62.6 0.56 59.86-0.52 57.13-1.61 55.15-3.56 53.17-5.52 52.05-8.23 50.93-10.94 50.93-14.16L50.93-14.16Q50.93-17.38 52.05-20.09 53.17-22.8 55.15-24.76 57.13-26.71 59.86-27.8 62.6-28.88 65.82-28.88L65.82-28.88Q67.38-28.88 69.02-28.66 70.65-28.44 72.19-27.97 73.73-27.49 75.1-26.73 76.46-25.98 77.48-24.87 78.49-23.75 79.09-22.29 79.69-20.83 79.69-18.95ZM93.09-32.62L93.09 0 84.83 0 84.83-41.19 88.01-41.19 93.09-32.62ZM129.75-14.16L129.75-14.16Q129.75-11.96 129.17-10.03 128.58-8.11 127.54-6.47 126.51-4.83 125.04-3.53 123.58-2.22 121.83-1.32 120.09-0.42 118.1 0.07 116.11 0.56 114.01 0.56L114.01 0.56Q111.91 0.56 109.93 0.07 107.95-0.42 106.21-1.32 104.46-2.22 103-3.53 101.53-4.83 100.49-6.47 99.46-8.11 98.87-10.05 98.28-11.99 98.28-14.16L98.28-14.16Q98.28-16.33 98.87-18.27 99.46-20.21 100.49-21.85 101.53-23.49 103-24.79 104.46-26.1 106.21-27 107.95-27.91 109.93-28.39 111.91-28.88 114.01-28.88L114.01-28.88Q116.11-28.88 118.1-28.39 120.09-27.91 121.83-27 123.58-26.1 125.04-24.79 126.51-23.49 127.54-21.85 128.58-20.21 129.17-18.27 129.75-16.33 129.75-14.16ZM121.35-14.16L121.35-14.16Q121.35-15.33 121.22-16.64 121.09-17.94 120.77-19.2 120.45-20.46 119.9-21.62 119.35-22.78 118.55-23.65 117.74-24.51 116.62-25.04 115.5-25.56 114.01-25.56L114.01-25.56Q112.59-25.56 111.49-25.02 110.39-24.49 109.58-23.6 108.76-22.71 108.21-21.53 107.66-20.36 107.32-19.1 106.97-17.85 106.83-16.56 106.68-15.28 106.68-14.16L106.68-14.16Q106.68-13.04 106.83-11.76 106.97-10.47 107.32-9.2 107.66-7.93 108.21-6.77 108.76-5.62 109.58-4.72 110.39-3.83 111.49-3.3 112.59-2.76 114.01-2.76L114.01-2.76Q115.47-2.76 116.59-3.28 117.72-3.81 118.53-4.69 119.35-5.57 119.89-6.71 120.43-7.86 120.76-9.13 121.09-10.4 121.22-11.69 121.35-12.99 121.35-14.16ZM163.37-38.57L163.37 0 160.2 0 156.53-6.13Q156-4.59 155.06-3.34 154.12-2.1 152.88-1.21 151.65-0.32 150.17 0.17 148.7 0.66 147.06 0.66L147.06 0.66Q143.84 0.66 141.3-0.49 138.76-1.64 137-3.63 135.24-5.62 134.32-8.3 133.39-10.99 133.39-14.06L133.39-14.06Q133.39-17.14 134.32-19.82 135.24-22.51 137-24.49 138.76-26.46 141.3-27.61 143.84-28.76 147.06-28.76L147.06-28.76Q149.53-28.76 151.59-27.81 153.65-26.86 155.12-24.83L155.12-24.83 155.12-38.57 163.37-38.57ZM155.07-14.06L155.07-14.06Q155.07-15.04 154.92-16.21 154.78-17.38 154.46-18.58 154.14-19.78 153.63-20.9 153.12-22.02 152.37-22.9 151.63-23.78 150.64-24.3 149.65-24.83 148.38-24.83L148.38-24.83Q146.99-24.83 145.96-24.33 144.94-23.83 144.2-22.99 143.47-22.14 143-21.04 142.52-19.95 142.25-18.75 141.98-17.55 141.87-16.35 141.76-15.14 141.76-14.06L141.76-14.06Q141.76-12.99 141.87-11.78 141.98-10.57 142.25-9.38 142.52-8.18 143-7.07 143.47-5.96 144.2-5.11 144.94-4.27 145.96-3.77 146.99-3.27 148.38-3.27L148.38-3.27Q149.77-3.27 150.82-3.76 151.87-4.25 152.61-5.09 153.36-5.93 153.84-7.02 154.31-8.11 154.58-9.31 154.85-10.52 154.96-11.74 155.07-12.96 155.07-14.06ZM189.78-28.2L195.5-28.2 185.24-3.39Q183.48 0.85 181.32 5.02 179.16 9.18 176.65 13.01L176.65 13.01 173.43 11.06Q174.04 9.96 174.87 8.52 175.7 7.08 176.5 5.54 177.31 4 177.99 2.5 178.67 1 179.04-0.24L179.04-0.24 166.71-28.2 174.96-28.2 183.34-9.13 189.78-28.2ZM224.55-28.2L213.44 0 206.02 0 195.76-28.2 204.01-28.2 211.53-5.74 218.83-28.2 224.55-28.2ZM234.26-13.38L234.26-13.38Q235.77-13.04 237.29-12.84 238.8-12.65 240.34-12.65L240.34-12.65Q241.95-12.65 243.33-12.95 244.71-13.26 245.72-13.98 246.74-14.7 247.32-15.89 247.91-17.09 247.91-18.87L247.91-18.87Q247.91-20.31 247.52-21.51 247.13-22.71 246.36-23.56 245.59-24.41 244.46-24.89 243.34-25.37 241.85-25.37L241.85-25.37Q240.46-25.37 239.35-24.85 238.24-24.34 237.4-23.47 236.55-22.61 235.96-21.46 235.36-20.31 234.97-19.07 234.58-17.82 234.41-16.55 234.24-15.28 234.24-14.16L234.24-14.16Q234.24-13.96 234.24-13.77 234.24-13.57 234.26-13.38ZM254.6-18.95L254.6-18.95Q254.6-17.21 254.04-15.86 253.47-14.5 252.51-13.48 251.55-12.45 250.28-11.74 249.01-11.04 247.57-10.58 246.13-10.13 244.6-9.94 243.07-9.74 241.63-9.74L241.63-9.74Q239.8-9.74 238.02-10 236.24-10.25 234.5-10.82L234.5-10.82Q234.77-9.2 235.36-7.75 235.94-6.3 236.92-5.21 237.9-4.13 239.33-3.49 240.75-2.86 242.71-2.86L242.71-2.86Q244-2.86 245.17-3.25 246.34-3.64 247.32-4.35 248.3-5.05 249.04-6.03 249.79-7.01 250.25-8.2L250.25-8.2 253.82-6.88Q253.01-4.96 251.61-3.55 250.2-2.15 248.43-1.23 246.66-0.32 244.67 0.12 242.68 0.56 240.73 0.56L240.73 0.56Q237.51 0.56 234.77-0.52 232.04-1.61 230.06-3.56 228.08-5.52 226.96-8.23 225.84-10.94 225.84-14.16L225.84-14.16Q225.84-17.38 226.96-20.09 228.08-22.8 230.06-24.76 232.04-26.71 234.77-27.8 237.51-28.88 240.73-28.88L240.73-28.88Q242.29-28.88 243.93-28.66 245.56-28.44 247.1-27.97 248.64-27.49 250.01-26.73 251.37-25.98 252.39-24.87 253.4-23.75 254-22.29 254.6-20.83 254.6-18.95ZM283.72-25.71L283.72-25.71 279.08-18.02Q278.79-18.99 278.32-20.21 277.86-21.44 277.18-22.5 276.49-23.56 275.54-24.28 274.59-25 273.34-25L273.34-25Q272.2-25 271.35-24.41 270.51-23.83 269.93-22.89 269.34-21.95 268.96-20.76 268.58-19.58 268.38-18.37 268.17-17.16 268.1-16.05 268.02-14.94 268.02-14.14L268.02-14.14 268.02 0 259.75 0 259.75-28.2 262.92-28.2 266.26-21.63Q266.95-23.22 267.83-24.55 268.71-25.88 269.85-26.84 271-27.81 272.45-28.34 273.91-28.88 275.74-28.88L275.74-28.88Q276.69-28.88 277.86-28.72 279.03-28.56 280.16-28.19 281.28-27.81 282.23-27.2 283.18-26.59 283.72-25.71ZM311.43-9.01L311.43-9.01Q311.43-7.15 310.89-5.71 310.35-4.27 309.43-3.21 308.5-2.15 307.23-1.43 305.96-0.71 304.51-0.27 303.05 0.17 301.47 0.37 299.88 0.56 298.32 0.56L298.32 0.56Q296.22 0.56 294.61 0.29 293 0.02 291.53-0.57 290.07-1.17 288.61-2.12 287.16-3.08 285.38-4.44L285.38-4.44 290.19-8.37Q290.85-7.13 291.93-6.12 293.02-5.1 294.19-4.37 295.36-3.64 296.46-3.25 297.56-2.86 298.24-2.86L298.24-2.86Q298.81-2.86 299.51-2.89 300.22-2.93 300.95-3.04 301.69-3.15 302.39-3.37 303.1-3.59 303.65-3.97 304.2-4.35 304.53-4.92 304.86-5.49 304.86-6.3L304.86-6.3Q304.86-7.13 304.43-7.75 304.01-8.37 303.32-8.84 302.64-9.3 301.76-9.62 300.88-9.94 299.99-10.18 299.1-10.42 298.27-10.61 297.44-10.79 296.83-10.96L296.83-10.96Q295.71-11.28 294.46-11.61 293.21-11.94 291.99-12.37 290.77-12.79 289.66-13.38 288.55-13.96 287.71-14.78 286.87-15.6 286.37-16.71 285.87-17.82 285.87-19.31L285.87-19.31Q285.87-22.05 286.95-23.89 288.04-25.73 289.82-26.84 291.6-27.95 293.87-28.42 296.14-28.88 298.49-28.88L298.49-28.88Q300.1-28.88 301.88-28.55 303.66-28.22 305.35-27.58 307.03-26.93 308.5-26 309.96-25.07 310.94-23.88L310.94-23.88 306.13-19.92Q305.59-21.39 304.73-22.44 303.86-23.49 302.85-24.16 301.83-24.83 300.77-25.15 299.71-25.46 298.81-25.46L298.81-25.46Q297.93-25.46 296.83-25.39 295.73-25.32 294.77-24.98 293.8-24.63 293.13-23.94 292.46-23.24 292.46-22.02L292.46-22.02Q292.46-21.14 292.86-20.52 293.26-19.9 293.92-19.45 294.58-18.99 295.42-18.69 296.27-18.38 297.15-18.15 298.02-17.92 298.85-17.75 299.68-17.58 300.34-17.38L300.34-17.38Q301.47-17.07 302.72-16.74 303.98-16.41 305.2-15.98 306.42-15.55 307.56-14.98 308.69-14.4 309.55-13.57 310.4-12.74 310.92-11.63 311.43-10.52 311.43-9.01ZM323.41-13.38L323.41-13.38Q324.93-13.04 326.44-12.84 327.95-12.65 329.49-12.65L329.49-12.65Q331.1-12.65 332.48-12.95 333.86-13.26 334.87-13.98 335.89-14.7 336.47-15.89 337.06-17.09 337.06-18.87L337.06-18.87Q337.06-20.31 336.67-21.51 336.28-22.71 335.51-23.56 334.74-24.41 333.62-24.89 332.49-25.37 331.01-25.37L331.01-25.37Q329.61-25.37 328.5-24.85 327.39-24.34 326.55-23.47 325.71-22.61 325.11-21.46 324.51-20.31 324.12-19.07 323.73-17.82 323.56-16.55 323.39-15.28 323.39-14.16L323.39-14.16Q323.39-13.96 323.39-13.77 323.39-13.57 323.41-13.38ZM343.75-18.95L343.75-18.95Q343.75-17.21 343.19-15.86 342.63-14.5 341.66-13.48 340.7-12.45 339.43-11.74 338.16-11.04 336.72-10.58 335.28-10.13 333.75-9.94 332.23-9.74 330.79-9.74L330.79-9.74Q328.95-9.74 327.17-10 325.39-10.25 323.66-10.82L323.66-10.82Q323.93-9.2 324.51-7.75 325.1-6.3 326.07-5.21 327.05-4.13 328.48-3.49 329.91-2.86 331.86-2.86L331.86-2.86Q333.15-2.86 334.33-3.25 335.5-3.64 336.47-4.35 337.45-5.05 338.2-6.03 338.94-7.01 339.4-8.2L339.4-8.2 342.97-6.88Q342.16-4.96 340.76-3.55 339.35-2.15 337.58-1.23 335.81-0.32 333.83 0.12 331.84 0.56 329.88 0.56L329.88 0.56Q326.66 0.56 323.93-0.52 321.19-1.61 319.21-3.56 317.24-5.52 316.11-8.23 314.99-10.94 314.99-14.16L314.99-14.16Q314.99-17.38 316.11-20.09 317.24-22.8 319.21-24.76 321.19-26.71 323.93-27.8 326.66-28.88 329.88-28.88L329.88-28.88Q331.44-28.88 333.08-28.66 334.72-28.44 336.25-27.97 337.79-27.49 339.16-26.73 340.53-25.98 341.54-24.87 342.55-23.75 343.15-22.29 343.75-20.83 343.75-18.95Z" opacity="1" transform="matrix(1,0,0,1,0,0)" fill="#6b488d" class="wordmark-text-0" data-fill-palette-color="primary" id="text-0"></path></svg></g></svg></g><g transform="matrix(1,0,0,1,163.310208,77.85810405555236)"><svg viewBox="0 0 232.209792 15.468000039231711" height="15.468000039231711" width="232.209792"><g transform="matrix(1,0,0,1,0,0)"><svg width="232.209792" viewBox="1.1 -32.2 489.34999999999997 32.60000000000001" height="15.468000039231711" data-palette-color="#6b488d"><path d="M43.9-31.95L31.95 0 29.3 0 22.3-20.15 22.05-20.15 14.55 0 11.9 0 1.1-31.95 3.75-31.95 4.35-29.3 13.25-3.15 13.5-3.15 21.15-23.75 18.3-31.95 21-31.95 21.7-29.1 30.6-3.15 30.9-3.15 40.65-29.2 41.35-31.95 43.9-31.95ZM73.25-31.95L73.15-9.85 73.2 0 70.65 0 70.75-9.7 70.75-15.05 52-15.05 52-9.85 52.1 0 49.5 0 49.6-9.7 49.5-31.95 52.1-31.95 52.05-17.3 70.7-17.3 70.65-31.95 73.25-31.95ZM100.25-2.35L100.45-2.05 100.2 0 83.35 0 83.5-9.7 83.35-31.95 100.15-31.95 100.35-31.65 100.05-29.6 92.6-29.7 86-29.65 85.9-17.6 92.15-17.55 97.5-17.6 97.7-17.35 97.45-15.3 85.9-15.35 85.85-9.85 85.95-2.25 92.4-2.2 100.25-2.35ZM117.79-13.1Q121.54-7.05 126.44-0.6L126.44-0.6 126.44-0.25Q125.64 0.15 124.19 0.4L124.19 0.4 123.79 0.2Q118.94-6.75 115.59-12.5L115.59-12.5 109.29-12.5 109.29-9.85 109.39 0 106.79 0 106.94-9.7 106.79-31.95 115.29-32Q119.84-32 122.29-29.7 124.74-27.4 124.74-23.05L124.74-23.05Q124.74-19.55 122.94-16.98 121.14-14.4 117.79-13.1L117.79-13.1ZM109.44-29.7L109.34-14.8 115.84-14.7Q118.89-15.55 120.49-17.63 122.09-19.7 122.09-22.9L122.09-22.9Q122.09-26.25 120.27-27.98 118.44-29.7 114.99-29.8L114.99-29.8 109.44-29.7ZM150.59-2.35L150.79-2.05 150.54 0 133.69 0 133.84-9.7 133.69-31.95 150.49-31.95 150.69-31.65 150.39-29.6 142.94-29.7 136.34-29.65 136.24-17.6 142.49-17.55 147.84-17.6 148.04-17.35 147.79-15.3 136.24-15.35 136.19-9.85 136.29-2.25 142.74-2.2 150.59-2.35ZM193.29-31.95L196.54 0 194.14 0 193.29-9.75 191.34-27.45 191.04-27.45 181.29-3.85 178.94-3.85 169.54-27.45 169.24-27.45 167.29-9.9 166.34 0 164.04 0 167.49-31.95 170.44-31.95 172.24-27.05 180.09-7.3 180.34-7.3 188.64-27.45 190.34-31.95 193.29-31.95ZM226.93-31.95L226.88-15.65 226.88-11.8Q226.98-6.05 223.93-2.9 220.88 0.25 215.23 0.25L215.23 0.25Q209.73 0.25 206.81-2.8 203.88-5.85 203.93-11.6L203.93-11.6 203.93-31.95 206.48-31.95 206.38-11.85Q206.33-7.05 208.63-4.55 210.93-2.05 215.38-2.05L215.38-2.05Q219.83-2.05 222.16-4.5 224.48-6.95 224.43-11.6L224.43-11.6 224.33-31.95 226.93-31.95ZM243.73-32.15Q247.03-32.15 250.38-30.65L250.38-30.65 249.93-28.25 249.43-28.1Q248.03-29 246.46-29.48 244.88-29.95 243.43-29.95L243.43-29.95Q241.33-29.95 239.76-29.08 238.18-28.2 237.36-26.8 236.53-25.4 236.53-23.95L236.53-23.95Q236.53-22.4 237.43-21.25 238.33-20.1 239.66-19.28 240.98-18.45 243.23-17.4L243.23-17.4Q245.88-16.1 247.51-15.08 249.13-14.05 250.28-12.43 251.43-10.8 251.43-8.5L251.43-8.5Q251.43-6.15 250.16-4.13 248.88-2.1 246.56-0.93 244.23 0.25 241.33 0.25L241.33 0.25Q239.28 0.25 237.13-0.33 234.98-0.9 233.23-2L233.23-2 233.53-4.65 233.88-4.8Q235.53-3.35 237.58-2.63 239.63-1.9 241.53-1.9L241.53-1.9Q243.73-1.9 245.38-2.8 247.03-3.7 247.93-5.15 248.83-6.6 248.83-8.2L248.83-8.2Q248.83-9.85 247.91-11.08 246.98-12.3 245.66-13.1 244.33-13.9 241.98-15.05L241.98-15.05Q239.38-16.3 237.78-17.3 236.18-18.3 235.08-19.9 233.98-21.5 233.98-23.75L233.98-23.75Q233.98-26.05 235.21-27.98 236.43-29.9 238.66-31.03 240.88-32.15 243.73-32.15L243.73-32.15ZM261.53-31.95L261.38-9.85 261.48 0 258.88 0 259.03-9.7 258.88-31.95 261.53-31.95ZM281.48-32.2Q283.93-32.2 286.18-31.53 288.43-30.85 290.23-29.55L290.23-29.55 289.68-27.2 289.28-27.15Q285.78-29.95 281.38-29.95L281.38-29.95Q276.03-29.95 273.2-26.35 270.38-22.75 270.38-15.95L270.38-15.95Q270.38-9.15 273.13-5.58 275.88-2 281.03-2L281.03-2Q283.33-2 285.58-2.83 287.83-3.65 289.78-5.15L289.78-5.15 290.18-5 289.98-2.55Q285.68 0.3 280.88 0.3L280.88 0.3Q274.58 0.3 271.15-3.88 267.73-8.05 267.73-15.8L267.73-15.8Q267.73-23.65 271.3-27.93 274.88-32.2 281.48-32.2L281.48-32.2ZM332.87-31.95L336.12 0 333.72 0 332.87-9.75 330.92-27.45 330.62-27.45 320.87-3.85 318.52-3.85 309.12-27.45 308.82-27.45 306.87-9.9 305.92 0 303.62 0 307.07-31.95 310.02-31.95 311.82-27.05 319.67-7.3 319.92-7.3 328.22-27.45 329.92-31.95 332.87-31.95ZM355.47-31.95L366.62 0 363.92 0 363.22-2.7 360.82-9.6 353.22-9.7 346.37-9.6 343.77-2.8 343.02 0 340.32 0 352.52-31.95 355.47-31.95ZM353.52-11.85L360.02-11.9 354.07-28.95 353.77-28.95 347.27-11.9 353.52-11.85ZM387.67-31.95L387.92-31.65 387.67-29.65 382.32-29.8 378.42-29.8 378.27-9.85 378.37 0 375.77 0 375.92-9.7 375.77-29.8 371.87-29.8 366.42-29.65 366.22-29.95 366.47-31.95 387.67-31.95ZM411.81-31.95L412.06-31.65 411.81-29.65 406.46-29.8 402.56-29.8 402.41-9.85 402.51 0 399.91 0 400.06-9.7 399.91-29.8 396.01-29.8 390.56-29.65 390.36-29.95 390.61-31.95 411.81-31.95ZM435.21-2.35L435.41-2.05 435.16 0 418.31 0 418.46-9.7 418.31-31.95 435.11-31.95 435.31-31.65 435.01-29.6 427.56-29.7 420.96-29.65 420.86-17.6 427.11-17.55 432.46-17.6 432.66-17.35 432.41-15.3 420.86-15.35 420.81-9.85 420.91-2.25 427.36-2.2 435.21-2.35ZM452.76-13.1Q456.51-7.05 461.41-0.6L461.41-0.6 461.41-0.25Q460.61 0.15 459.16 0.4L459.16 0.4 458.76 0.2Q453.91-6.75 450.56-12.5L450.56-12.5 444.26-12.5 444.26-9.85 444.36 0 441.76 0 441.91-9.7 441.76-31.95 450.26-32Q454.81-32 457.26-29.7 459.71-27.4 459.71-23.05L459.71-23.05Q459.71-19.55 457.91-16.98 456.11-14.4 452.76-13.1L452.76-13.1ZM444.41-29.7L444.31-14.8 450.81-14.7Q453.86-15.55 455.46-17.63 457.06-19.7 457.06-22.9L457.06-22.9Q457.06-26.25 455.23-27.98 453.41-29.7 449.96-29.8L449.96-29.8 444.41-29.7ZM476.46-32.15Q479.76-32.15 483.11-30.65L483.11-30.65 482.66-28.25 482.16-28.1Q480.76-29 479.18-29.48 477.61-29.95 476.16-29.95L476.16-29.95Q474.06-29.95 472.48-29.08 470.91-28.2 470.08-26.8 469.26-25.4 469.26-23.95L469.26-23.95Q469.26-22.4 470.16-21.25 471.06-20.1 472.38-19.28 473.71-18.45 475.96-17.4L475.96-17.4Q478.61-16.1 480.23-15.08 481.86-14.05 483.01-12.43 484.16-10.8 484.16-8.5L484.16-8.5Q484.16-6.15 482.88-4.13 481.61-2.1 479.28-0.93 476.96 0.25 474.06 0.25L474.06 0.25Q472.01 0.25 469.86-0.33 467.71-0.9 465.96-2L465.96-2 466.26-4.65 466.61-4.8Q468.26-3.35 470.31-2.63 472.36-1.9 474.26-1.9L474.26-1.9Q476.46-1.9 478.11-2.8 479.76-3.7 480.66-5.15 481.56-6.6 481.56-8.2L481.56-8.2Q481.56-9.85 480.63-11.08 479.71-12.3 478.38-13.1 477.06-13.9 474.71-15.05L474.71-15.05Q472.11-16.3 470.51-17.3 468.91-18.3 467.81-19.9 466.71-21.5 466.71-23.75L466.71-23.75Q466.71-26.05 467.93-27.98 469.16-29.9 471.38-31.03 473.61-32.15 476.46-32.15L476.46-32.15ZM488.8-3.25Q489.6-3.25 490.03-2.8 490.45-2.35 490.45-1.6L490.45-1.6Q490.45-0.8 490-0.33 489.55 0.15 488.75 0.15L488.75 0.15Q487.95 0.15 487.53-0.28 487.1-0.7 487.1-1.5L487.1-1.5Q487.1-2.3 487.55-2.78 488-3.25 488.8-3.25L488.8-3.25Z" opacity="1" transform="matrix(1,0,0,1,0,0)" fill="#6b488d" class="slogan-text-1" data-fill-palette-color="secondary" id="text-1"></path></svg></g></svg></g></svg></g></svg></g><g transform="matrix(1,0,0,1,410.38998353905305,0)"><svg viewBox="0 0 128.9766758589916 128.9766758589916" height="128.9766758589916" width="128.9766758589916"><g data-palette-color="#d54741"><rect width="35.25362473479104" height="128.9766758589916" fill="#d54741" stroke="transparent" data-fill-palette-color="accent" x="0" fill-opacity="1"></rect><rect width="35.25362473479104" height="128.9766758589916" fill="#d54741" stroke="transparent" data-fill-palette-color="accent" x="42.99222528633054" fill-opacity="0.75"></rect><rect width="35.25362473479104" height="128.9766758589916" fill="#d54741" stroke="transparent" data-fill-palette-color="accent" x="85.98445057266107" fill-opacity="0.5"></rect></g></svg></g></svg></g><defs></defs></svg><rect width="395.52" height="94.57917716434454" fill="none" stroke="none" visibility="hidden"></rect></g></svg></g></svg>