<?xml version="1.0" encoding="utf-8" ?>
<svg xmlns="http://www.w3.org/2000/svg" xmlns:xlink="http://www.w3.org/1999/xlink" width="2671" height="2671">
	<path fill="#41609E" transform="scale(2.60844 2.60844)" d="M0 0L1024 0L1024 1024L0 1024L0 0Z"/>
	<path fill="#4EC6B7" transform="scale(2.60844 2.60844)" d="M539.822 201.339C541.526 198.887 544.066 196.91 546.258 194.893C546.296 197.309 546.489 199.823 546.266 202.225L539.822 201.339Z"/>
	<path fill="#C01928" transform="scale(2.60844 2.60844)" d="M357.13 855.323C365.451 858.541 385.404 868.134 393.326 864.167C393.892 863.884 394.481 863.45 394.926 863.008C395.558 863.655 395.977 864.069 396.774 864.52C398.197 865.827 399.712 867.119 401.031 868.529C401.822 869.375 402.713 870.164 402.667 871.359C395.682 873.575 367.817 861.888 359.58 859.081L357.13 855.323Z"/>
	<path fill="#4EC6B7" transform="scale(2.60844 2.60844)" d="M480.381 172.066C489.987 179.938 498.53 190.076 507.15 199.025Q491.87 199.485 476.623 200.589C475.264 200.586 473.9 200.695 472.607 200.218C475.477 190.875 477.705 181.447 480.381 172.066Z"/>
	<path fill="#4EC6B7" transform="scale(2.60844 2.60844)" d="M612.084 111.435C620.516 118.276 627.718 127.848 635.356 135.641C643.242 143.687 679.926 177.476 682.395 183.834C655.171 159.564 639.363 147.22 603.921 136.351C607.106 128.127 609.356 119.789 612.084 111.435Z"/>
	<path fill="#4EC6B7" transform="scale(2.60844 2.60844)" d="M121.238 344.736C131.159 341.982 142.477 341.698 152.735 340.224C165.58 338.379 178.683 335.339 191.599 334.36Q191.402 347.853 191.544 361.346C191.564 365.956 192.194 371.712 191.259 376.168C189.747 385.1 191.968 394.6 190.662 403.547Q155.391 374.802 121.238 344.736Z"/>
	<path fill="#E9383A" transform="scale(2.60844 2.60844)" d="M546.428 132.077C565.854 129.657 585.014 131.163 603.921 136.351C639.363 147.22 655.171 159.564 682.395 183.834C690.322 191.111 697.763 198.848 705.233 206.587C710.859 212.416 716.732 218.235 721.815 224.545L719.217 225.843C712.826 215.742 681.786 189.682 671.419 182.865C663.297 177.523 654.568 172.829 645.293 169.832C613.202 159.463 590.177 169.86 561.918 184.382C556.699 187.109 551.347 189.753 546.444 193.028C545.845 186.532 546.369 179.55 546.393 173.009Q546.531 152.543 546.428 132.077Z"/>
	<path fill="#4EC6B7" transform="scale(2.60844 2.60844)" d="M829.45 335.618C843.17 334.087 856.688 331.561 870.283 329.238L933.52 318.468C919.292 336.09 903.433 352.532 888.7 369.771L859.36 404.062C854.256 410.022 849.293 416.478 843.756 422.008C838.997 421.126 834.092 420.559 829.405 419.369C830.157 410.464 829.51 400.98 829.505 392.021L829.45 335.618Z"/>
	<defs>
		<linearGradient id="gradient_0" gradientUnits="userSpaceOnUse" x1="853.27271" y1="521.83972" x2="914.49414" y2="499.67636">
			<stop offset="0" stop-color="#FC921E"/>
			<stop offset="1" stop-color="#F96A36"/>
		</linearGradient>
	</defs>
	<path fill="url(#gradient_0)" transform="scale(2.60844 2.60844)" d="M866.252 431.14L875.955 437.777Q876.858 438.407 877.745 439.059Q878.631 439.711 879.502 440.384Q880.372 441.058 881.226 441.753Q882.079 442.448 882.915 443.164Q883.751 443.88 884.569 444.617Q885.387 445.353 886.187 446.11Q886.986 446.866 887.767 447.642Q888.547 448.418 889.308 449.213Q890.069 450.008 890.811 450.822Q891.552 451.636 892.273 452.468Q892.993 453.3 893.693 454.149Q894.393 454.999 895.072 455.865Q895.751 456.732 896.408 457.615Q897.065 458.498 897.7 459.397Q898.335 460.296 898.947 461.21Q899.56 462.125 900.15 463.054Q900.739 463.983 901.306 464.927Q901.872 465.871 902.416 466.828Q902.958 467.786 903.478 468.756Q903.997 469.727 904.492 470.71Q904.987 471.693 905.457 472.688Q905.927 473.683 906.373 474.69Q906.819 475.696 907.239 476.713Q907.66 477.73 908.055 478.758Q908.45 479.785 908.82 480.822Q909.19 481.858 909.534 482.904Q909.878 483.95 910.196 485.003Q910.514 486.057 910.805 487.118Q911.097 488.18 911.362 489.248Q911.628 490.316 911.867 491.391Q912.105 492.465 912.318 493.545Q912.53 494.625 912.715 495.71C917.082 519.875 911.894 546.792 897.769 567.023C891.724 575.682 884.493 584.212 875.521 589.958C872.303 592.023 869.114 594.233 865.806 596.145C865.731 585.26 865.943 574.355 866.017 563.47C866.144 559.325 866.042 555.164 866.014 551.017L866.028 535.557L866.001 523.982Q865.952 514.899 866.098 505.818L866.558 505.644C866.659 502.007 867.069 498.049 866.366 494.472C865.226 489.708 866.062 483.157 866.112 478.209C866.25 474.582 866.187 470.973 866.115 467.345Q865.909 449.241 866.252 431.14Z"/>
	<path fill="#FBFEEC" transform="scale(2.60844 2.60844)" d="M875.659 523.854Q881.815 523.685 887.968 523.919L887.978 562.282C883.841 562.38 879.723 562.478 875.587 562.314Q875.744 543.084 875.659 523.854Z"/>
	<path fill="#A00A1F" transform="scale(2.60844 2.60844)" d="M866.558 505.644C868.437 505.568 870.298 505.519 872.163 505.259C873.211 505.114 873.805 505.235 874.8 505.653C875.701 506.989 875.518 507.894 875.58 509.483Q875.551 516.669 875.659 523.854Q875.744 543.084 875.587 562.314Q875.463 576.136 875.521 589.958C872.303 592.023 869.114 594.233 865.806 596.145C865.731 585.26 865.943 574.355 866.017 563.47C866.144 559.325 866.042 555.164 866.014 551.017L866.028 535.557L866.001 523.982Q865.952 514.899 866.098 505.818L866.558 505.644Z"/>
	<path fill="#FBFEEC" transform="scale(2.60844 2.60844)" d="M866.252 431.14L875.955 437.777C875.97 446.357 876.099 454.952 875.984 463.531C880.044 462.688 884.399 462.848 888.53 462.987C888.584 478.442 888.881 494.05 888.269 509.484C884.194 509.511 879.979 509.77 875.919 509.498L875.58 509.483C875.518 507.894 875.701 506.989 874.8 505.653C873.805 505.235 873.211 505.114 872.163 505.259C870.298 505.519 868.437 505.568 866.558 505.644C866.659 502.007 867.069 498.049 866.366 494.472C865.226 489.708 866.062 483.157 866.112 478.209C866.25 474.582 866.187 470.973 866.115 467.345Q865.909 449.241 866.252 431.14Z"/>
	<path fill="#BBA2A0" transform="scale(2.60844 2.60844)" d="M875.896 494.568C875.797 499.555 875.729 504.511 875.919 509.498L875.58 509.483C875.518 507.894 875.701 506.989 874.8 505.653C873.805 505.235 873.211 505.114 872.163 505.259C870.298 505.519 868.437 505.568 866.558 505.644C866.659 502.007 867.069 498.049 866.366 494.472C869.198 494.711 873.17 495.45 875.896 494.568Z"/>
	<path fill="#A00A1F" transform="scale(2.60844 2.60844)" d="M866.252 431.14L875.955 437.777C875.97 446.357 876.099 454.952 875.984 463.531L875.896 494.568C873.17 495.45 869.198 494.711 866.366 494.472C865.226 489.708 866.062 483.157 866.112 478.209C866.25 474.582 866.187 470.973 866.115 467.345Q865.909 449.241 866.252 431.14Z"/>
	<path fill="#4EC6B7" transform="scale(2.60844 2.60844)" d="M452.335 827.73C486.847 835.158 524.073 832.49 558.649 826.84C550.73 837.344 540.475 846.351 531.493 855.961C513.502 875.209 495.798 894.741 477.649 913.839C467.954 905.372 459.128 895.791 449.858 886.849Q437.924 875.32 426.229 863.549C422.547 859.91 418.484 856.49 415.058 852.621C427.351 844.127 440.066 836.275 452.335 827.73Z"/>
	<path fill="#4EC6B7" transform="scale(2.60844 2.60844)" d="M206.034 603.421C214.574 634.441 235.848 676.439 258.191 699.584C250.576 705.63 241.03 713.764 232.559 718.234L141.335 702.591C125.598 699.888 110.208 696.588 94.3389 694.512C101.829 687.736 110.454 681.838 118.356 675.51L166.78 636.108C180.096 625.364 193.647 615.301 206.034 603.421Z"/>
	<path fill="#4EC6B7" transform="scale(2.60844 2.60844)" d="M356.438 97.8761C376.314 114.945 394.382 134.26 413.191 152.479C430.418 169.167 448.603 184.896 465.625 201.804C404.352 211.726 356.022 236.053 308.066 274.867C309.137 266.192 312.587 257.296 315.13 248.931Q319.213 235.359 322.908 221.676L356.438 97.8761Z"/>
	<path fill="#210942" transform="scale(2.60844 2.60844)" d="M199.706 573.41C187.621 578.44 175.165 580.672 162.086 579.016Q160.286 578.775 158.499 578.445Q156.713 578.116 154.945 577.698Q153.178 577.28 151.433 576.774Q149.688 576.269 147.971 575.678Q146.253 575.086 144.567 574.411Q142.881 573.735 141.231 572.976Q139.58 572.217 137.97 571.378Q136.359 570.538 134.792 569.619Q133.225 568.701 131.705 567.705Q130.186 566.71 128.718 565.641Q127.249 564.571 125.836 563.43Q124.423 562.289 123.068 561.079Q121.713 559.869 120.42 558.594Q119.127 557.318 117.898 555.98Q116.67 554.642 115.51 553.244Q114.349 551.846 113.26 550.393C100.823 534.117 95.5603 514.861 98.3906 494.498Q98.6459 492.733 98.9864 490.982Q99.3269 489.231 99.7518 487.499Q100.177 485.767 100.685 484.057Q101.193 482.348 101.784 480.665Q102.374 478.982 103.046 477.33Q103.717 475.677 104.468 474.059Q105.218 472.442 106.047 470.862Q106.875 469.282 107.778 467.745Q108.682 466.207 109.659 464.715Q110.636 463.223 111.685 461.78Q112.733 460.337 113.85 458.946Q114.967 457.556 116.15 456.221Q117.333 454.886 118.579 453.61Q119.825 452.335 121.132 451.121Q122.438 449.906 123.802 448.757Q125.166 447.608 126.584 446.526C142.458 434.571 162.38 431.983 181.693 434.649C159.578 439.415 139.148 448.331 126.449 468.066Q125.58 469.443 124.78 470.861Q123.98 472.279 123.251 473.735Q122.523 475.192 121.867 476.682Q121.212 478.173 120.631 479.694Q120.05 481.215 119.546 482.763Q119.041 484.311 118.614 485.882Q118.186 487.453 117.838 489.044Q117.489 490.634 117.219 492.24Q116.95 493.846 116.76 495.463Q116.571 497.08 116.462 498.705Q116.353 500.33 116.324 501.958Q116.296 503.586 116.348 505.213Q116.401 506.84 116.534 508.463Q116.667 510.086 116.88 511.7Q117.094 513.315 117.387 514.916Q117.68 516.518 118.052 518.103Q118.4 519.648 118.824 521.174Q119.249 522.7 119.748 524.203Q120.248 525.705 120.822 527.182Q121.396 528.658 122.042 530.103Q122.689 531.549 123.407 532.961Q124.125 534.373 124.912 535.747Q125.699 537.122 126.553 538.455Q127.408 539.788 128.327 541.078Q129.247 542.367 130.23 543.609Q131.213 544.851 132.256 546.042Q133.299 547.234 134.401 548.372Q135.502 549.51 136.659 550.592Q137.815 551.674 139.024 552.697Q140.233 553.72 141.492 554.682Q142.75 555.643 144.055 556.541Q145.359 557.439 146.707 558.271Q148.197 559.222 149.732 560.097Q151.267 560.972 152.843 561.77Q154.42 562.568 156.035 563.286Q157.649 564.005 159.298 564.641Q160.946 565.278 162.624 565.832Q164.302 566.386 166.006 566.856Q167.709 567.325 169.434 567.709Q171.159 568.093 172.901 568.391Q174.643 568.689 176.397 568.899Q178.152 569.11 179.915 569.233Q181.677 569.355 183.444 569.39Q185.211 569.425 186.977 569.372Q188.744 569.318 190.505 569.177Q192.267 569.036 194.019 568.807Q195.771 568.578 197.51 568.262Q199.248 567.946 200.969 567.544C220.298 563.03 238.689 550.034 249.082 533.031C251.31 529.385 253.218 525.447 255.564 521.892C254.659 560.525 263.494 594.248 281.878 628.03C287.376 638.134 293.216 648.033 301.203 656.41Q305.911 661.289 310.855 665.928C299.284 673.763 283.946 685.447 271.671 691.36C266.864 693.545 262.5 696.555 258.191 699.584C235.848 676.439 214.574 634.441 206.034 603.421C203.292 593.499 200.757 583.683 199.706 573.41Z"/>
	<path fill="#4EC6B7" transform="scale(2.60844 2.60844)" d="M561.918 184.382C590.177 169.86 613.202 159.463 645.293 169.832C654.568 172.829 663.297 177.523 671.419 182.865C681.786 189.682 712.826 215.742 719.217 225.843C710.285 230.816 702.267 237.058 694.003 243.035C689.073 246.751 684.021 251.05 678.6 254.011C660.204 265.942 642.55 279.036 624.188 291.017C605.591 280.472 583.016 271.068 562.062 266.749C561.573 245.984 560.985 225.069 561.842 204.311C561.535 197.719 561.871 190.989 561.918 184.382Z"/>
	<path fill="#210942" transform="scale(2.60844 2.60844)" d="M561.842 204.311C605.57 212.178 642.21 229.005 678.6 254.011C660.204 265.942 642.55 279.036 624.188 291.017C605.591 280.472 583.016 271.068 562.062 266.749C561.573 245.984 560.985 225.069 561.842 204.311Z"/>
	<path fill="#A00A1F" transform="scale(2.60844 2.60844)" d="M310.855 665.928C316.677 675.726 322.306 685.833 328.528 695.373C322.418 699.937 295.647 716.255 292.802 720.419C293.982 723.406 295.84 726.038 298.024 728.379L298.775 728.552C301.202 730.562 303.046 733.727 304.908 736.291L318.958 755.558C320.95 758.276 322.977 761.711 325.367 764.048L325.588 764.776C326.605 767.209 327.412 769.82 329.422 771.621L329.875 771.537C334.88 777.851 339.547 784.448 344.347 790.919C348.308 796.259 352.556 801.53 356.118 807.138L356.418 807.205L361.073 814.124C369.742 825.084 381.897 840.775 388.776 852.682C390.663 856.216 393.15 859.459 394.926 863.008C394.481 863.45 393.892 863.884 393.326 864.167C385.404 868.134 365.451 858.541 357.13 855.323L359.58 859.081Q273.472 830.908 187.781 801.49C178.466 798.369 169.329 794.752 160.061 791.499C153.121 789.064 146.057 786.996 139.074 784.69C130.393 781.824 121.863 778.798 112.879 777.003C115.061 776.482 117.149 776.123 119.384 775.926C130.822 772.934 145.186 773.046 155.983 769.184C162.534 766.842 168.939 761.273 174.733 757.439C194.159 744.584 213.095 731.016 232.559 718.234C241.03 713.764 250.576 705.63 258.191 699.584C262.5 696.555 266.864 693.545 271.671 691.36C283.946 685.447 299.284 673.763 310.855 665.928Z"/>
	<path fill="#FDBE2B" transform="scale(2.60844 2.60844)" d="M361.073 814.124C369.742 825.084 381.897 840.775 388.776 852.682C390.663 856.216 393.15 859.459 394.926 863.008C394.481 863.45 393.892 863.884 393.326 864.167C385.404 868.134 365.451 858.541 357.13 855.323C343.953 850.249 331.144 844.979 318.612 838.458Q331.884 831.654 344.629 823.906C349.862 820.728 355.399 816.319 361.073 814.124Z"/>
	<path fill="#FDBE2B" transform="scale(2.60844 2.60844)" d="M329.875 771.537C334.88 777.851 339.547 784.448 344.347 790.919C348.308 796.259 352.556 801.53 356.118 807.138C340.863 816.664 326.32 827.171 310.645 836.037C294.601 829.095 278.092 823.211 262.098 816.201C271.187 811.058 280.297 805.7 288.89 799.762C302.478 790.373 315.29 780.241 329.422 771.621L329.875 771.537Z"/>
	<path fill="#FDBE2B" transform="scale(2.60844 2.60844)" d="M298.775 728.552C301.202 730.562 303.046 733.727 304.908 736.291L318.958 755.558C320.95 758.276 322.977 761.711 325.367 764.048L325.588 764.776C326.605 767.209 327.412 769.82 329.422 771.621C315.29 780.241 302.478 790.373 288.89 799.762C280.297 805.7 271.187 811.058 262.098 816.201C259.781 815.194 257.733 814.77 255.627 813.218C251.932 812.908 211.173 795.556 203.503 792.474C211.378 786.404 220.449 781.484 228.786 776.032C244.702 765.624 260.398 754.955 276.164 744.33C283.699 739.253 291.856 734.439 298.775 728.552Z"/>
	<path fill="#C01928" transform="scale(2.60844 2.60844)" d="M325.588 764.776C326.605 767.209 327.412 769.82 329.422 771.621C315.29 780.241 302.478 790.373 288.89 799.762C280.297 805.7 271.187 811.058 262.098 816.201C259.781 815.194 257.733 814.77 255.627 813.218C270.127 805.02 283.522 795.2 297.123 785.626C306.654 778.918 316.779 772.415 325.588 764.776Z"/>
	<path fill="#FDBE2B" transform="scale(2.60844 2.60844)" d="M310.855 665.928C316.677 675.726 322.306 685.833 328.528 695.373C322.418 699.937 295.647 716.255 292.802 720.419C293.982 723.406 295.84 726.038 298.024 728.379L298.775 728.552C291.856 734.439 283.699 739.253 276.164 744.33C260.398 754.955 244.702 765.624 228.786 776.032C220.449 781.484 211.378 786.404 203.503 792.474C200.354 791.101 196.628 789.924 194 787.7L194.336 786.209C193.733 786.511 192.817 787.146 192.19 787.284C189.039 787.982 178.402 782.804 175.15 781.477C170.449 779.558 165.219 776.939 160.261 775.862C155.105 774.741 149.085 775.693 143.803 775.877C135.72 776.159 127.456 776.488 119.384 775.926C130.822 772.934 145.186 773.046 155.983 769.184C162.534 766.842 168.939 761.273 174.733 757.439C194.159 744.584 213.095 731.016 232.559 718.234C241.03 713.764 250.576 705.63 258.191 699.584C262.5 696.555 266.864 693.545 271.671 691.36C283.946 685.447 299.284 673.763 310.855 665.928Z"/>
	<path fill="#C01928" transform="scale(2.60844 2.60844)" d="M310.855 665.928C316.677 675.726 322.306 685.833 328.528 695.373C322.418 699.937 295.647 716.255 292.802 720.419C293.982 723.406 295.84 726.038 298.024 728.379L298.775 728.552C291.856 734.439 283.699 739.253 276.164 744.33C260.398 754.955 244.702 765.624 228.786 776.032C220.449 781.484 211.378 786.404 203.503 792.474C200.354 791.101 196.628 789.924 194 787.7L194.336 786.209C197.523 782.76 213.571 773.344 218.263 770.4C227.592 764.544 289.636 725.138 292.677 720.488C288.558 711.864 278.256 698.512 271.671 691.36C283.946 685.447 299.284 673.763 310.855 665.928Z"/>
	<path fill="#FDBE2B" transform="scale(2.60844 2.60844)" d="M827.024 419.511L829.405 419.369C834.092 420.559 838.997 421.126 843.756 422.008C849.947 423.496 861.36 427.034 866.252 431.14Q865.909 449.242 866.115 467.345C866.187 470.973 866.25 474.582 866.112 478.209C866.062 483.157 865.226 489.708 866.366 494.472C867.069 498.049 866.659 502.007 866.558 505.644L866.098 505.818Q865.952 514.9 866.001 523.982L866.028 535.557L866.014 551.017C866.042 555.164 866.144 559.325 866.017 563.47C865.943 574.355 865.731 585.26 865.806 596.145L859.144 599.565C848.956 603.545 837.698 607.376 826.696 607.795L817.828 607.948C815.824 608.103 813.79 607.797 811.795 607.602C800.188 606.057 789.904 600.763 779.92 594.969C776.489 592.398 773.503 589.283 770.45 586.286L769.941 585.424C765.604 580.892 761.872 575.703 758.01 570.764C754.263 567.242 751.797 562.312 748.097 558.625L748.067 557.9C734.162 540.951 732.376 524.235 732.418 503.307C732.712 497.274 734.138 491.209 735.339 485.302C737.832 478.183 740.952 471.53 744.277 464.775L746.085 462.624C752.292 454.453 759.378 447.612 767.052 440.865L769.014 439.585C772.779 437.153 776.378 434.63 779.909 431.868C781.776 430.265 783.937 429.374 785.616 427.496C790.15 427.726 800.86 423.184 805.65 421.559C809.721 421.245 813.92 420.254 817.992 419.694L827.024 419.511Z"/>
	<path fill="#100638" transform="scale(2.60844 2.60844)" d="M818.143 563.178C820.92 562.741 824.079 563.009 826.905 563.021L826.994 563.354Q826.586 585.573 826.696 607.795L817.828 607.948C818.265 593.042 817.807 578.094 818.143 563.178Z"/>
	<path fill="#FBFEEC" transform="scale(2.60844 2.60844)" d="M818.168 551.85C820.742 552.169 824.402 552.448 826.921 551.731C826.918 555.49 826.989 559.264 826.905 563.021C824.079 563.009 820.92 562.741 818.143 563.178C813.584 563.694 808.653 563.391 804.052 563.373L779.614 563.223C779.475 559.39 779.45 555.63 779.653 551.8C790.447 551.027 807.257 551.082 818.168 551.85Z"/>
	<path fill="#93889C" transform="scale(2.60844 2.60844)" d="M818.168 551.85C820.742 552.169 824.402 552.448 826.921 551.731C826.918 555.49 826.989 559.264 826.905 563.021C824.079 563.009 820.92 562.741 818.143 563.178C818.652 559.516 818.343 555.532 818.168 551.85Z"/>
	<path fill="#FDBE2B" transform="scale(2.60844 2.60844)" d="M779.781 535.508L818.21 535.464C818.187 540.915 818.041 546.402 818.168 551.85C807.257 551.082 790.447 551.027 779.653 551.8C780.31 546.542 779.953 540.808 779.781 535.508Z"/>
	<path fill="#FDBE2B" transform="scale(2.60844 2.60844)" d="M779.969 505.513C792.676 505.521 805.464 505.239 818.16 505.648C818.335 511.74 817.877 518.062 818.341 524.105Q818.595 529.657 818.608 535.214L818.21 535.464L779.781 535.508C779.387 531.693 779.557 527.769 779.763 523.947C780.252 517.884 779.97 511.603 779.969 505.513Z"/>
	<path fill="#FBFEEC" transform="scale(2.60844 2.60844)" d="M779.763 523.947C792.562 523.92 805.567 523.467 818.341 524.105Q818.595 529.657 818.608 535.214L818.21 535.464L779.781 535.508C779.387 531.693 779.557 527.769 779.763 523.947Z"/>
	<path fill="#FDBE2B" transform="scale(2.60844 2.60844)" d="M826.994 563.354Q846.505 563.553 866.017 563.47C865.943 574.355 865.731 585.26 865.806 596.145L859.144 599.565C848.956 603.545 837.698 607.376 826.696 607.795Q826.586 585.573 826.994 563.354Z"/>
	<path fill="#FDBE2B" transform="scale(2.60844 2.60844)" d="M827.197 505.64C840.023 505.683 853.323 504.966 866.098 505.818Q865.952 514.9 866.001 523.982L866.028 535.557L866.014 551.017C866.042 555.164 866.144 559.325 866.017 563.47Q846.505 563.553 826.994 563.354L826.905 563.021C826.989 559.264 826.918 555.49 826.921 551.731C824.402 552.448 820.742 552.169 818.168 551.85C818.041 546.402 818.187 540.915 818.21 535.464L818.608 535.214Q818.595 529.657 818.341 524.105C817.877 518.062 818.335 511.74 818.16 505.648L827.197 505.64Z"/>
	<path fill="#100638" transform="scale(2.60844 2.60844)" d="M818.16 505.648L827.197 505.64C827.164 511.768 827.423 518.054 827.043 524.161C824.108 524.32 821.274 524.269 818.341 524.105C817.877 518.062 818.335 511.74 818.16 505.648Z"/>
	<path fill="#FBFEEC" transform="scale(2.60844 2.60844)" d="M827.043 524.161C839.944 523.675 853.086 523.786 866.001 523.982L866.028 535.557C853.019 535.429 839.902 535.896 826.91 535.301C824.15 534.988 821.38 535.143 818.608 535.214Q818.595 529.657 818.341 524.105C821.274 524.269 824.108 524.32 827.043 524.161Z"/>
	<path fill="#E4E3E7" transform="scale(2.60844 2.60844)" d="M818.341 524.105C821.274 524.269 824.108 524.32 827.043 524.161C826.899 527.884 826.828 531.576 826.91 535.301C824.15 534.988 821.38 535.143 818.608 535.214Q818.595 529.657 818.341 524.105Z"/>
	<path fill="#FDBE2B" transform="scale(2.60844 2.60844)" d="M818.608 535.214C821.38 535.143 824.15 534.988 826.91 535.301C839.902 535.896 853.019 535.429 866.028 535.557L866.014 551.017C866.042 555.164 866.144 559.325 866.017 563.47Q846.505 563.553 826.994 563.354L826.905 563.021C826.989 559.264 826.918 555.49 826.921 551.731C824.402 552.448 820.742 552.169 818.168 551.85C818.041 546.402 818.187 540.915 818.21 535.464L818.608 535.214Z"/>
	<path fill="#100638" transform="scale(2.60844 2.60844)" d="M818.608 535.214C821.38 535.143 824.15 534.988 826.91 535.301L826.921 551.731C824.402 552.448 820.742 552.169 818.168 551.85C818.041 546.402 818.187 540.915 818.21 535.464L818.608 535.214Z"/>
	<path fill="#FBFEEC" transform="scale(2.60844 2.60844)" d="M826.921 551.731C839.71 550.188 853.139 550.983 866.014 551.017C866.042 555.164 866.144 559.325 866.017 563.47Q846.505 563.553 826.994 563.354L826.905 563.021C826.989 559.264 826.918 555.49 826.921 551.731Z"/>
	<path fill="#FBFEEC" transform="scale(2.60844 2.60844)" d="M769.014 439.585C770.696 444.18 769.134 454.995 769.707 460.454C770.007 463.026 770.024 465.547 770.02 468.13C773.224 468.129 776.748 468.409 779.841 467.487C779.778 471.269 779.689 475.038 779.9 478.816L779.972 494.343L779.866 497.633L779.969 505.513C779.97 511.603 780.252 517.884 779.763 523.947C779.557 527.769 779.387 531.693 779.781 535.508C779.953 540.808 780.31 546.542 779.653 551.8C779.45 555.63 779.475 559.39 779.614 563.223C780.4 573.681 779.92 584.467 779.92 594.969C776.489 592.398 773.503 589.283 770.45 586.286L769.941 585.424C765.604 580.892 761.872 575.703 758.01 570.764C754.263 567.242 751.797 562.312 748.097 558.625L748.067 557.9C734.162 540.951 732.376 524.235 732.418 503.307C732.712 497.274 734.138 491.209 735.339 485.302C737.832 478.183 740.952 471.53 744.277 464.775L746.085 462.624C752.292 454.453 759.378 447.612 767.052 440.865L769.014 439.585Z"/>
	<path fill="#C01928" transform="scale(2.60844 2.60844)" d="M770.02 468.13C773.224 468.129 776.748 468.409 779.841 467.487C779.778 471.269 779.689 475.038 779.9 478.816L779.972 494.343L779.866 497.633C779.111 498.769 779.335 500.795 779.287 502.188C776.37 502.426 773.537 503.225 770.704 503.923C770.733 502.108 771.185 499.161 770.162 497.636C769.981 487.803 770.273 477.969 770.02 468.13Z"/>
	<path fill="#E9383A" transform="scale(2.60844 2.60844)" d="M770.162 497.636C771.185 499.161 770.733 502.108 770.704 503.923C773.537 503.225 776.37 502.426 779.287 502.188C779.335 500.795 779.111 498.769 779.866 497.633L779.969 505.513C779.97 511.603 780.252 517.884 779.763 523.947C779.557 527.769 779.387 531.693 779.781 535.508C779.953 540.808 780.31 546.542 779.653 551.8C779.45 555.63 779.475 559.39 779.614 563.223C780.4 573.681 779.92 584.467 779.92 594.969C776.489 592.398 773.503 589.283 770.45 586.286L769.941 585.424L770.162 497.636Z"/>
	<path fill="#F86328" transform="scale(2.60844 2.60844)" d="M769.014 439.585C770.696 444.18 769.134 454.995 769.707 460.454L758.589 460.378L758.411 526.278C758.258 541.109 757.672 555.928 758.01 570.764C754.263 567.242 751.797 562.312 748.097 558.625L748.067 557.9C734.162 540.951 732.376 524.235 732.418 503.307C732.712 497.274 734.138 491.209 735.339 485.302C737.832 478.183 740.952 471.53 744.277 464.775L746.085 462.624C752.292 454.453 759.378 447.612 767.052 440.865L769.014 439.585Z"/>
	<path fill="#FDBE2B" transform="scale(2.60844 2.60844)" d="M746.085 462.624C746.962 464.713 747.636 466.559 747.873 468.833C749.493 484.401 748.54 500.806 748.583 516.472C748.617 528.949 749.519 541.808 748.884 554.23C748.815 555.58 748.58 556.642 748.067 557.9C734.162 540.951 732.376 524.235 732.418 503.307C732.712 497.274 734.138 491.209 735.339 485.302C737.832 478.183 740.952 471.53 744.277 464.775L746.085 462.624Z"/>
	<path fill="#FDBE2B" transform="scale(2.60844 2.60844)" d="M827.024 419.511L829.405 419.369C834.092 420.559 838.997 421.126 843.756 422.008C849.947 423.496 861.36 427.034 866.252 431.14Q865.909 449.242 866.115 467.345C866.187 470.973 866.25 474.582 866.112 478.209C866.062 483.157 865.226 489.708 866.366 494.472C867.069 498.049 866.659 502.007 866.558 505.644L866.098 505.818C853.323 504.966 840.023 505.683 827.197 505.64L818.16 505.648C805.464 505.239 792.676 505.521 779.969 505.513L779.866 497.633L779.972 494.343L779.9 478.816C779.689 475.038 779.778 471.269 779.841 467.487C776.748 468.409 773.224 468.129 770.02 468.13C770.024 465.547 770.007 463.026 769.707 460.454C769.134 454.995 770.696 444.18 769.014 439.585C772.779 437.153 776.378 434.63 779.909 431.868C781.776 430.265 783.937 429.374 785.616 427.496C790.15 427.726 800.86 423.184 805.65 421.559C809.721 421.245 813.92 420.254 817.992 419.694L827.024 419.511Z"/>
	<path fill="#210942" transform="scale(2.60844 2.60844)" d="M817.992 419.694L827.024 419.511L826.972 467.524C823.979 467.643 820.963 467.542 817.967 467.512L817.992 419.694Z"/>
	<path fill="#FDBE2B" transform="scale(2.60844 2.60844)" d="M805.65 421.559C809.721 421.245 813.92 420.254 817.992 419.694L817.967 467.512C805.353 466.985 792.623 467.391 779.986 467.142L779.841 467.487C776.748 468.409 773.224 468.129 770.02 468.13C770.024 465.547 770.007 463.026 769.707 460.454C769.134 454.995 770.696 444.18 769.014 439.585C772.779 437.153 776.378 434.63 779.909 431.868C781.776 430.265 783.937 429.374 785.616 427.496C790.15 427.726 800.86 423.184 805.65 421.559Z"/>
	<path fill="#A00A1F" transform="scale(2.60844 2.60844)" d="M769.014 439.585C772.779 437.153 776.378 434.63 779.909 431.868C779.782 443.482 778.989 455.595 779.986 467.142L779.841 467.487C776.748 468.409 773.224 468.129 770.02 468.13C770.024 465.547 770.007 463.026 769.707 460.454C769.134 454.995 770.696 444.18 769.014 439.585Z"/>
	<path fill="#FBFEEC" transform="scale(2.60844 2.60844)" d="M779.986 467.142C792.623 467.391 805.353 466.985 817.967 467.512C820.963 467.542 823.979 467.643 826.972 467.524C839.99 467.332 853.101 466.864 866.115 467.345C866.187 470.973 866.25 474.582 866.112 478.209C866.062 483.157 865.226 489.708 866.366 494.472C867.069 498.049 866.659 502.007 866.558 505.644L866.098 505.818C853.323 504.966 840.023 505.683 827.197 505.64L818.16 505.648C805.464 505.239 792.676 505.521 779.969 505.513L779.866 497.633L779.972 494.343L779.9 478.816C779.689 475.038 779.778 471.269 779.841 467.487L779.986 467.142Z"/>
	<path fill="#FDBE2B" transform="scale(2.60844 2.60844)" d="M779.9 478.816C792.607 478.617 805.41 479.01 818.096 478.408Q818.205 486.413 818.122 494.418L779.972 494.343L779.9 478.816Z"/>
	<path fill="#FDBE2B" transform="scale(2.60844 2.60844)" d="M866.112 478.209C866.062 483.157 865.226 489.708 866.366 494.472C853.296 494.221 840.187 494.436 827.113 494.45L818.122 494.418Q818.205 486.413 818.096 478.408C821.126 478.279 824.128 478.174 827.161 478.252C840.119 477.86 853.148 478.088 866.112 478.209Z"/>
	<path fill="#100638" transform="scale(2.60844 2.60844)" d="M818.096 478.408C821.126 478.279 824.128 478.174 827.161 478.252Q827.024 486.351 827.113 494.45L818.122 494.418Q818.205 486.413 818.096 478.408Z"/>
	<path fill="#FBFEEC" transform="scale(2.60844 2.60844)" d="M779.972 494.343L818.122 494.418L827.113 494.45C840.187 494.436 853.296 494.221 866.366 494.472C867.069 498.049 866.659 502.007 866.558 505.644L866.098 505.818C853.323 504.966 840.023 505.683 827.197 505.64L818.16 505.648C805.464 505.239 792.676 505.521 779.969 505.513L779.866 497.633L779.972 494.343Z"/>
	<path fill="#A00A1F" transform="scale(2.60844 2.60844)" d="M842.975 146.123C855.741 138.427 868.666 131.837 883.362 128.662C863.561 143.948 847.141 160.382 836.359 183.446C833.382 189.816 830.601 196.752 829.704 203.773C828.919 209.916 829.291 216.35 829.313 222.541L829.415 252.48C829.461 280.142 828.723 307.974 829.45 335.618L829.505 392.021C829.51 400.98 830.157 410.464 829.405 419.369L827.024 419.511L817.992 419.694C813.92 420.254 809.721 421.245 805.65 421.559C800.86 423.184 790.15 427.726 785.616 427.496C783.937 429.374 781.776 430.265 779.909 431.868C776.378 434.63 772.779 437.153 769.014 439.585L767.052 440.865C766.947 434.151 768.02 390.589 766.665 388.181L765.229 387.959L734.833 388.202Q727.031 388.442 719.225 388.375C719.975 383.176 720.587 377.767 722.519 372.847C722.174 372.032 721.801 371.738 721.168 371.14C717.644 366.669 700.796 353.13 695.547 348.466C693.439 346.284 689.316 343.302 688.055 340.714L687.548 340.85C679.147 332.154 670.19 324.476 660.966 316.691C658.658 314.42 656.059 312.533 653.479 310.588C643.475 304.439 634.843 297.178 624.188 291.017C642.55 279.036 660.204 265.942 678.6 254.011C684.021 251.05 689.073 246.751 694.003 243.035C702.267 237.058 710.285 230.816 719.217 225.843L721.815 224.545C746.212 206.667 772.309 190.69 797.638 174.152C808.207 167.251 832.596 149.727 842.975 146.123Z"/>
	<path fill="#FDBE2B" transform="scale(2.60844 2.60844)" d="M771.651 349.238C783.108 342.483 794.079 335.016 805.434 328.11C805.579 359.242 805.145 390.435 805.65 421.559C800.86 423.184 790.15 427.726 785.616 427.496C788.787 420.561 791.109 414.069 791.91 406.443C794.12 385.427 784.556 365.263 771.651 349.238Z"/>
	<path fill="#FDBE2B" transform="scale(2.60844 2.60844)" d="M744.983 314.325C765.008 300.71 785.395 287.61 805.346 273.908C805.388 287.365 805.261 300.847 805.507 314.301C793.002 323.498 780.027 332.044 767.24 340.839C765.928 341.509 765.038 342.143 763.529 342.128C758.075 335.803 750.09 321.821 744.983 314.325Z"/>
	<path fill="#FDBE2B" transform="scale(2.60844 2.60844)" d="M720.081 278.042L789.049 232.17C794.535 228.596 799.863 224.753 805.418 221.294L805.496 260.561C790.659 270.112 776.22 280.328 761.765 290.444C754.423 295.582 746.89 301.698 739.009 305.91C732.835 298.498 725.743 286.332 720.081 278.042Z"/>
	<path fill="#210942" transform="scale(2.60844 2.60844)" d="M766.436 342.807C768.016 344.787 769.784 347.591 771.651 349.238C784.556 365.263 794.12 385.427 791.91 406.443C791.109 414.069 788.787 420.561 785.616 427.496C783.937 429.374 781.776 430.265 779.909 431.868C776.378 434.63 772.779 437.153 769.014 439.585L767.052 440.865C766.947 434.151 768.02 390.589 766.665 388.181L765.229 387.959L734.833 388.202Q727.031 388.442 719.225 388.375C719.975 383.176 720.587 377.767 722.519 372.847L722.96 372.748C725.251 370.343 729.47 368.172 732.24 366.229Q749.213 354.336 766.436 342.807Z"/>
	<path fill="#E9383A" transform="scale(2.60844 2.60844)" d="M722.96 372.748Q726.369 376.252 729.347 380.129Q732.325 384.005 734.833 388.202Q727.031 388.442 719.225 388.375C719.975 383.176 720.587 377.767 722.519 372.847L722.96 372.748Z"/>
	<path fill="#FDBE2B" transform="scale(2.60844 2.60844)" d="M721.815 224.545C746.212 206.667 772.309 190.69 797.638 174.152C808.207 167.251 832.596 149.727 842.975 146.123C839.148 149.7 835.13 152.996 831.491 156.783C817.707 171.125 810.938 187.808 806.184 206.82Q759.759 239.067 712.703 270.385C710.382 263.782 698.769 249.512 694.003 243.035C702.267 237.058 710.285 230.816 719.217 225.843L721.815 224.545Z"/>
	<path fill="#C01928" transform="scale(2.60844 2.60844)" d="M678.6 254.011C684.021 251.05 689.073 246.751 694.003 243.035C698.769 249.512 710.382 263.782 712.703 270.385L712.585 270.669C715.426 271.904 717.486 276.003 719.458 278.39L720.081 278.042C725.743 286.332 732.835 298.498 739.009 305.91L738.743 306.259C740.726 308.094 744.467 311.629 744.63 314.433L744.983 314.325C750.09 321.821 758.075 335.803 763.529 342.128C765.038 342.143 765.928 341.509 767.24 340.839L766.436 342.807Q749.213 354.336 732.24 366.229C729.47 368.172 725.251 370.343 722.96 372.748L722.519 372.847C722.174 372.032 721.801 371.738 721.168 371.14C717.644 366.669 700.796 353.13 695.547 348.466C693.439 346.284 689.316 343.302 688.055 340.714L687.548 340.85C679.147 332.154 670.19 324.476 660.966 316.691C658.658 314.42 656.059 312.533 653.479 310.588C643.475 304.439 634.843 297.178 624.188 291.017C642.55 279.036 660.204 265.942 678.6 254.011Z"/>
	<path fill="#7A0815" transform="scale(2.60844 2.60844)" d="M738.743 306.259C740.726 308.094 744.467 311.629 744.63 314.433C735.82 319.791 727.336 325.847 718.834 331.683C710.972 337.079 702.85 342.318 695.547 348.466C693.439 346.284 689.316 343.302 688.055 340.714C694.029 337.492 699.701 332.972 705.325 329.125L738.743 306.259Z"/>
	<path fill="#C01928" transform="scale(2.60844 2.60844)" d="M744.983 314.325C750.09 321.821 758.075 335.803 763.529 342.128C765.038 342.143 765.928 341.509 767.24 340.839L766.436 342.807Q749.213 354.336 732.24 366.229C729.47 368.172 725.251 370.343 722.96 372.748L722.519 372.847C722.174 372.032 721.801 371.738 721.168 371.14C717.644 366.669 700.796 353.13 695.547 348.466C702.85 342.318 710.972 337.079 718.834 331.683C727.336 325.847 735.82 319.791 744.63 314.433L744.983 314.325Z"/>
	<path fill="#C01928" transform="scale(2.60844 2.60844)" d="M678.6 254.011C684.021 251.05 689.073 246.751 694.003 243.035C698.769 249.512 710.382 263.782 712.703 270.385L712.585 270.669C715.426 271.904 717.486 276.003 719.458 278.39L660.966 316.691C658.658 314.42 656.059 312.533 653.479 310.588C643.475 304.439 634.843 297.178 624.188 291.017C642.55 279.036 660.204 265.942 678.6 254.011Z"/>
	<path fill="#7A0815" transform="scale(2.60844 2.60844)" d="M712.585 270.669C715.426 271.904 717.486 276.003 719.458 278.39L660.966 316.691C658.658 314.42 656.059 312.533 653.479 310.588C658.633 306.34 665.099 302.836 670.648 299.001C684.513 289.42 698.335 279.67 712.585 270.669Z"/>
	<path fill="#238B61" transform="scale(2.60844 2.60844)" d="M209.877 172.495C210.055 186.271 213.695 196.129 223.632 205.863C240.322 222.212 256.159 223.792 267.231 247.399C270.208 259.596 269.443 269.393 266.328 281.423C265.628 288.887 264.859 312.714 266.031 319.444Q265.077 356.574 264.881 393.715Q264.4 419.124 264.388 444.538C264.359 449.221 263.993 453.952 264.048 458.618C263.259 463.35 262.428 468.094 262.178 472.891C261.409 487.64 262.533 501.306 257.828 515.696C257.21 517.584 256.574 520.208 255.564 521.892C253.218 525.447 251.31 529.385 249.082 533.031C238.689 550.034 220.298 563.03 200.969 567.544Q199.248 567.946 197.51 568.262Q195.771 568.578 194.019 568.807Q192.267 569.036 190.505 569.177Q188.744 569.318 186.977 569.372Q185.211 569.425 183.444 569.39Q181.677 569.355 179.915 569.232Q178.152 569.11 176.397 568.899Q174.643 568.689 172.901 568.391Q171.159 568.093 169.434 567.709Q167.709 567.325 166.006 566.856Q164.302 566.386 162.624 565.832Q160.946 565.278 159.298 564.641Q157.649 564.005 156.035 563.286Q154.42 562.568 152.843 561.77Q151.267 560.972 149.732 560.097Q148.197 559.222 146.707 558.271Q145.359 557.439 144.055 556.541Q142.75 555.643 141.492 554.682Q140.233 553.72 139.024 552.697Q137.815 551.674 136.659 550.592Q135.502 549.51 134.401 548.372Q133.299 547.234 132.256 546.042Q131.213 544.851 130.23 543.609Q129.247 542.367 128.327 541.078Q127.408 539.788 126.553 538.455Q125.699 537.122 124.912 535.747Q124.125 534.373 123.407 532.961Q122.689 531.549 122.042 530.103Q121.396 528.658 120.822 527.182Q120.248 525.705 119.748 524.203Q119.249 522.7 118.824 521.174Q118.4 519.648 118.052 518.103Q117.68 516.518 117.387 514.916Q117.094 513.315 116.88 511.7Q116.667 510.086 116.534 508.463Q116.401 506.84 116.348 505.213Q116.296 503.586 116.324 501.958Q116.353 500.33 116.462 498.705Q116.571 497.08 116.76 495.463Q116.95 493.846 117.219 492.24Q117.489 490.634 117.838 489.044Q118.186 487.453 118.614 485.882Q119.041 484.311 119.546 482.763Q120.05 481.215 120.631 479.694Q121.212 478.173 121.867 476.682Q122.523 475.192 123.251 473.735Q123.98 472.279 124.78 470.861Q125.58 469.443 126.449 468.066C139.148 448.331 159.578 439.415 181.693 434.649C184.628 434.844 187.572 434.994 190.489 435.377C190.537 425.235 190.399 415.051 190.84 404.919L190.662 403.547C191.968 394.6 189.747 385.1 191.259 376.168C192.194 371.712 191.564 365.956 191.544 361.346Q191.402 347.853 191.599 334.36C192.59 321.755 190.437 268.352 192.87 262.374C192.802 262.155 192.72 261.94 192.668 261.718C190.531 252.711 191.057 220.461 192.44 211.014C193.193 205.872 194.429 200.611 197.131 196.123C199.874 190.637 201.662 182.63 207.207 179.376C208.008 177.029 208.805 174.739 209.877 172.495Z"/>
	<path fill="#EDD375" transform="scale(2.60844 2.60844)" d="M190.84 404.919C193.906 407.626 198.447 407.818 200.334 409.634Q201.147 456.116 200.576 502.601C197.168 501.34 193.927 500.661 190.349 500.049L190.489 435.377C190.537 425.235 190.399 415.051 190.84 404.919Z"/>
	<path fill="#E4E3E7" transform="scale(2.60844 2.60844)" d="M191.259 376.168L191.589 376.712C208.303 403.745 244.847 413.166 235.999 451.507C234.679 457.226 232.493 462.86 229.843 468.091C232.061 455.409 231.873 443.386 224.254 432.481C218.076 423.639 208.431 416.656 200.334 409.634C198.447 407.818 193.906 407.626 190.84 404.919L190.662 403.547C191.968 394.6 189.747 385.1 191.259 376.168Z"/>
	<path fill="#FDBE2B" transform="scale(2.60844 2.60844)" d="M200.576 502.601C200.475 508.245 201.167 514.337 200.071 519.888C199.197 524.317 196.665 527.942 192.875 530.38C186.918 534.212 178.58 534.999 171.752 533.383C166.061 532.036 160.644 528.73 157.623 523.614C155.592 520.174 155.014 516.184 156.107 512.329C157.535 507.292 161.513 502.523 166.092 500.034C174.756 495.324 181.597 497.663 190.349 500.049C193.927 500.661 197.168 501.34 200.576 502.601Z"/>
	<path fill="#210942" transform="scale(2.60844 2.60844)" d="M209.877 172.495C210.055 186.271 213.695 196.129 223.632 205.863C240.322 222.212 256.159 223.792 267.231 247.399C270.208 259.596 269.443 269.393 266.328 281.423C265.243 281.045 263.213 272.778 262.535 270.953C258.218 259.332 248.142 252.681 239.202 244.79Q233.294 239.506 228.157 233.471C215.135 218.259 205.587 199.86 207.207 179.376C208.008 177.029 208.805 174.739 209.877 172.495Z"/>
	<path fill="#210942" transform="scale(2.60844 2.60844)" d="M197.131 196.123C193.98 211.562 198.631 227.626 207.22 240.584C214.34 251.325 223.91 259.526 232.42 269.029C248.392 286.863 262.302 312.055 257.422 336.749C256.923 339.275 256.434 341.937 255.619 344.381C246.613 313.797 219.109 305.458 202.27 281.529C198.102 275.606 195.322 269.151 192.87 262.374C192.802 262.155 192.72 261.94 192.668 261.718C190.531 252.711 191.057 220.461 192.44 211.014C193.193 205.872 194.429 200.611 197.131 196.123Z"/>
	<path fill="#2BB0C2" transform="scale(2.60844 2.60844)" d="M562.062 266.749C583.016 271.068 605.591 280.472 624.188 291.017C634.843 297.178 643.475 304.439 653.479 310.588C656.059 312.533 658.658 314.42 660.966 316.691C670.19 324.476 679.147 332.154 687.548 340.85L688.055 340.714C689.316 343.302 693.439 346.284 695.547 348.466C700.796 353.13 717.644 366.669 721.168 371.14C721.801 371.738 722.174 372.032 722.519 372.847C720.587 377.767 719.975 383.176 719.225 388.375Q727.031 388.442 734.833 388.202L765.229 387.959L766.665 388.181C768.02 390.589 766.947 434.151 767.052 440.865C759.378 447.612 752.292 454.453 746.085 462.624L744.277 464.775C740.952 471.53 737.832 478.183 735.339 485.302C734.138 491.209 732.712 497.274 732.418 503.307C732.376 524.235 734.162 540.951 748.067 557.9L748.097 558.625L747.597 558.446C744.317 558.968 731.973 567.739 728.118 570.13C720.276 574.995 712.177 579.461 704.413 584.448C676.447 602.411 648.936 621.614 620.082 638.124Q620.037 644.195 620.075 650.265L620.032 699.033C620.033 708.434 619.795 717.898 620.111 727.291C617.937 725.712 616.036 723.779 613.806 722.228C608.935 718.841 603.577 716.048 598.399 713.154L597.961 693.093Q597.919 677.484 598.072 661.877C598.326 657.964 598.132 653.979 598.08 650.056L597.97 596.938C598.022 593.399 597.948 589.869 597.863 586.331C597.542 582.223 597.747 578.137 597.902 574.028C598.449 562.365 598.011 550.456 598.029 538.768C597.578 527.53 597.912 516.152 597.969 504.901C598.004 501.672 598.633 497.05 597.615 494.048L596.647 493.781L597.171 493.48C600.966 485.913 616.795 482.994 623.045 476.682C620.437 476.503 617.809 476.488 615.196 476.415C609.268 475.563 602.698 476.015 596.689 476.011L562.493 476.056Q562.282 458.293 562.394 440.53C562.608 434.548 562.493 428.516 562.528 422.527Q562.439 405.307 562.538 388.087L562.543 371.748C562.55 349.81 563.402 327.425 562.311 305.527C561.069 295.356 562.037 277.681 562.062 266.749Z"/>
	<path fill="#210942" transform="scale(2.60844 2.60844)" d="M618.979 542.028C629.425 536.589 639.266 529.601 649.25 523.351Q671.818 509.512 694.223 495.411C710.563 484.975 727.104 473.785 744.277 464.775C740.952 471.53 737.832 478.183 735.339 485.302C734.138 491.209 732.712 497.274 732.418 503.307L732.142 503.344C727.434 503.006 633.171 564.476 619.913 572.247C620.024 566.944 620.147 561.558 619.701 556.272C619.024 551.694 619.192 546.673 618.979 542.028Z"/>
	<path fill="#E9383A" transform="scale(2.60844 2.60844)" d="M735.339 485.302C734.138 491.209 732.712 497.274 732.418 503.307L732.142 503.344C727.434 503.006 633.171 564.476 619.913 572.247C620.024 566.944 620.147 561.558 619.701 556.272C632.534 548.603 645.035 540.387 657.744 532.518L735.339 485.302Z"/>
	<path fill="#E9383A" transform="scale(2.60844 2.60844)" d="M619.913 572.247C633.171 564.476 727.434 503.006 732.142 503.344L732.418 503.307C732.376 524.235 734.162 540.951 748.067 557.9L748.097 558.625L747.597 558.446C744.317 558.968 731.973 567.739 728.118 570.13C720.276 574.995 712.177 579.461 704.413 584.448C676.447 602.411 648.936 621.614 620.082 638.124L619.957 584.439C619.832 580.383 619.598 576.296 619.913 572.247Z"/>
	<path fill="#100638" transform="scale(2.60844 2.60844)" d="M619.913 572.247C633.171 564.476 727.434 503.006 732.142 503.344L732.202 513.265C717.539 521.927 703.306 531.295 688.842 540.283C665.711 554.659 642.359 568.955 619.957 584.439C619.832 580.383 619.598 576.296 619.913 572.247Z"/>
	<path fill="#E4E3E7" transform="scale(2.60844 2.60844)" d="M734.833 388.202L765.229 387.959C756.748 395.116 740.987 403.912 731.244 409.985C725.515 413.557 717.395 419.695 711.216 422.005C702.299 429.013 691.715 434.73 681.932 440.485C677.467 444.034 626.769 475.506 623.045 476.682C620.437 476.503 617.809 476.488 615.196 476.415C609.268 475.563 602.698 476.015 596.689 476.011L562.493 476.056Q562.282 458.293 562.394 440.53C562.608 434.548 562.493 428.516 562.528 422.527Q562.439 405.307 562.538 388.087C614.753 388.184 667.018 387.739 719.225 388.375Q727.031 388.442 734.833 388.202Z"/>
	<path fill="#56266C" transform="scale(2.60844 2.60844)" d="M562.528 422.527L653.195 422.445C672.521 422.424 691.902 422.685 711.216 422.005C702.299 429.013 691.715 434.73 681.932 440.485L562.394 440.53C562.608 434.548 562.493 428.516 562.528 422.527Z"/>
	<path fill="#E4E3E7" transform="scale(2.60844 2.60844)" d="M562.394 440.53L681.932 440.485C677.467 444.034 626.769 475.506 623.045 476.682C620.437 476.503 617.809 476.488 615.196 476.415C609.268 475.563 602.698 476.015 596.689 476.011L562.493 476.056Q562.282 458.293 562.394 440.53Z"/>
	<path fill="#A00A1F" transform="scale(2.60844 2.60844)" d="M562.062 266.749C583.016 271.068 605.591 280.472 624.188 291.017C634.843 297.178 643.475 304.439 653.479 310.588C656.059 312.533 658.658 314.42 660.966 316.691C670.19 324.476 679.147 332.154 687.548 340.85L688.055 340.714C689.316 343.302 693.439 346.284 695.547 348.466C700.796 353.13 717.644 366.669 721.168 371.14C721.801 371.738 722.174 372.032 722.519 372.847C720.587 377.767 719.975 383.176 719.225 388.375C667.018 387.739 614.753 388.184 562.538 388.087L562.543 371.748C562.55 349.81 563.402 327.425 562.311 305.527C561.069 295.356 562.037 277.681 562.062 266.749Z"/>
	<path fill="#210942" transform="scale(2.60844 2.60844)" d="M721.168 371.14C721.801 371.738 722.174 372.032 722.519 372.847C720.587 377.767 719.975 383.176 719.225 388.375C667.018 387.739 614.753 388.184 562.538 388.087L562.543 371.748C615.404 371.96 668.317 370.537 721.168 371.14Z"/>
	<path fill="#E9383A" transform="scale(2.60844 2.60844)" d="M562.062 266.749C583.016 271.068 605.591 280.472 624.188 291.017C634.843 297.178 643.475 304.439 653.479 310.588C656.059 312.533 658.658 314.42 660.966 316.691C670.19 324.476 679.147 332.154 687.548 340.85C668.469 345.653 637.759 334.943 620.184 326.646C612.124 322.84 604.57 318.138 596.309 314.726C585.361 310.204 574.079 306.986 562.311 305.527C561.069 295.356 562.037 277.681 562.062 266.749Z"/>
	<path fill="#E9383A" transform="scale(2.60844 2.60844)" d="M562.611 561.02C574.504 553.762 586.067 545.877 598.029 538.768C598.011 550.456 598.449 562.365 597.902 574.028C597.747 578.137 597.542 582.223 597.863 586.331C597.948 589.869 598.022 593.399 597.97 596.938L598.08 650.056C598.132 653.979 598.326 657.964 598.072 661.877Q597.919 677.485 597.961 693.093L598.399 713.154C603.577 716.048 608.935 718.841 613.806 722.228C616.036 723.779 617.937 725.712 620.111 727.291C624.793 747.039 625.053 764.691 613.903 782.62C605.357 796.363 590.116 806.548 574.42 810.141C559.319 813.599 541.721 810.189 528.7 801.841C522.71 798.002 517.297 792.708 512.843 787.186C508.333 793.368 469.312 815.354 460.246 821.744C457.706 823.534 454.317 825.357 452.335 827.73C440.066 836.275 427.351 844.127 415.058 852.621C409.117 856.268 403.197 862.077 396.774 864.52C395.977 864.069 395.558 863.655 394.926 863.008C393.15 859.459 390.663 856.216 388.776 852.682C381.897 840.775 369.742 825.084 361.073 814.124L356.418 807.205L356.118 807.138C352.556 801.53 348.308 796.259 344.347 790.919C339.547 784.448 334.88 777.851 329.875 771.537L329.422 771.621C327.412 769.82 326.605 767.209 325.588 764.776L325.367 764.048C322.977 761.711 320.95 758.276 318.958 755.558L304.908 736.291C303.046 733.727 301.202 730.562 298.775 728.552L298.024 728.379C295.84 726.038 293.982 723.406 292.802 720.419C295.647 716.255 322.418 699.937 328.528 695.373C373.807 667.525 416.786 635.817 462.536 608.71C465.893 610.542 469.234 612.265 472.736 613.804C489.251 618.581 504.178 617.101 520.396 612.21C523.423 610.747 526.471 609.292 529.406 607.65C548.124 597.181 556.954 581.028 562.611 561.02Z"/>
	<path fill="#100638" transform="scale(2.60844 2.60844)" d="M598.08 650.056C598.132 653.979 598.326 657.964 598.072 661.877Q597.919 677.485 597.961 693.093C585.133 683.453 578.496 684.747 563.516 683.259C554.38 683.815 546.577 685.302 538.141 688.882C542.886 685.141 548.367 681.951 553.432 678.623C568.194 668.924 583.451 659.942 598.08 650.056Z"/>
	<path fill="#E9383A" transform="scale(2.60844 2.60844)" d="M563.516 683.259C574.749 675.531 586.193 668.558 598.072 661.877Q597.919 677.485 597.961 693.093C585.133 683.453 578.496 684.747 563.516 683.259Z"/>
	<path fill="#100638" transform="scale(2.60844 2.60844)" d="M394.651 780.952L481.98 724.174L506.843 708.184C512.228 704.668 517.655 700.593 523.384 697.691C517.097 703.523 508.308 711.1 506.342 719.879C490.859 728.534 476.332 739.026 461.587 748.876Q431.202 769.304 400.382 789.07C392.496 793.56 385.038 798.656 377.536 803.751C372.641 807.077 366.596 812.183 361.073 814.124L356.418 807.205C362.227 798.786 385.215 787.854 394.651 780.952Z"/>
	<path fill="#A00A1F" transform="scale(2.60844 2.60844)" d="M368.151 745.5L368.399 745.551C376.725 757.666 386.361 768.839 394.651 780.952C385.215 787.854 362.227 798.786 356.418 807.205L356.118 807.138C352.556 801.53 348.308 796.259 344.347 790.919C339.547 784.448 334.88 777.851 329.875 771.537C342.526 762.719 355.424 754.213 368.151 745.5Z"/>
	<path fill="#E9383A" transform="scale(2.60844 2.60844)" d="M506.342 719.879C499.971 735.711 495.465 752.678 502.379 769.159C503.227 771.18 504.276 773.125 505.297 775.063Q508.587 781.425 512.843 787.186C508.333 793.368 469.312 815.354 460.246 821.744C457.706 823.534 454.317 825.357 452.335 827.73C440.066 836.275 427.351 844.127 415.058 852.621C409.117 856.268 403.197 862.077 396.774 864.52C395.977 864.069 395.558 863.655 394.926 863.008C393.15 859.459 390.663 856.216 388.776 852.682C381.897 840.775 369.742 825.084 361.073 814.124C366.596 812.183 372.641 807.077 377.536 803.751C385.038 798.656 392.496 793.56 400.382 789.07Q431.201 769.304 461.587 748.876C476.332 739.026 490.859 728.534 506.342 719.879Z"/>
	<path fill="#100638" transform="scale(2.60844 2.60844)" d="M505.297 775.063Q508.587 781.425 512.843 787.186C508.333 793.368 469.312 815.354 460.246 821.744C457.706 823.534 454.317 825.357 452.335 827.73C440.066 836.275 427.351 844.127 415.058 852.621C409.117 856.268 403.197 862.077 396.774 864.52C395.977 864.069 395.558 863.655 394.926 863.008C393.15 859.459 390.663 856.216 388.776 852.682C401.638 844.07 414.185 834.801 427.498 826.899C438.71 820.587 449.262 812.543 460.08 805.545C474.463 796.24 492.515 786.276 505.297 775.063Z"/>
	<path fill="#A00A1F" transform="scale(2.60844 2.60844)" d="M361.073 814.124C366.596 812.183 372.641 807.077 377.536 803.751C385.038 798.656 392.496 793.56 400.382 789.07C408.75 802.004 418.363 814.485 427.498 826.899C414.185 834.801 401.638 844.07 388.776 852.682C381.897 840.775 369.742 825.084 361.073 814.124Z"/>
	<path fill="#9058B8" transform="scale(2.60844 2.60844)" d="M563.516 683.259C578.496 684.747 585.133 683.453 597.961 693.093L598.399 713.154C603.577 716.048 608.935 718.841 613.806 722.228C616.036 723.779 617.937 725.712 620.111 727.291C624.793 747.039 625.053 764.691 613.903 782.62C605.357 796.363 590.116 806.548 574.42 810.141C559.319 813.599 541.721 810.189 528.7 801.841C522.71 798.002 517.297 792.708 512.843 787.186Q508.587 781.425 505.297 775.063C504.276 773.125 503.227 771.18 502.379 769.159C495.465 752.678 499.971 735.711 506.342 719.879C508.308 711.1 517.097 703.523 523.384 697.691C527.944 694.272 533.159 691.63 538.141 688.882C546.577 685.302 554.38 683.815 563.516 683.259Z"/>
	<path fill="#56266C" transform="scale(2.60844 2.60844)" d="M559.771 706.665C569.002 704.797 581.61 707.635 589.411 712.786C598.091 718.516 603.64 728.418 605.545 738.501C607.599 749.368 605.458 761.47 599.158 770.636C592.496 780.329 582.822 785.709 571.45 787.867C560.113 789.268 549.356 787.04 540.089 780.184C531.356 773.724 525.332 764.397 523.801 753.58C522.212 742.357 524.833 731.062 531.725 722.003C538.814 712.685 548.376 708.23 559.771 706.665Z"/>
	<path fill="#E9383A" transform="scale(2.60844 2.60844)" d="M562.611 561.02C574.504 553.762 586.067 545.877 598.029 538.768C598.011 550.456 598.449 562.365 597.902 574.028C597.747 578.137 597.542 582.223 597.863 586.331C597.948 589.869 598.022 593.399 597.97 596.938C584.327 605.236 570.994 614.039 557.489 622.557C493.868 662.686 431.432 704.524 368.399 745.551L368.151 745.5C355.424 754.213 342.526 762.719 329.875 771.537L329.422 771.621C327.412 769.82 326.605 767.209 325.588 764.776L325.367 764.048C322.977 761.711 320.95 758.276 318.958 755.558L304.908 736.291C303.046 733.727 301.202 730.562 298.775 728.552L298.024 728.379C295.84 726.038 293.982 723.406 292.802 720.419C295.647 716.255 322.418 699.937 328.528 695.373C373.807 667.525 416.786 635.817 462.536 608.71C465.893 610.542 469.234 612.265 472.736 613.804C489.251 618.581 504.178 617.101 520.396 612.21C523.423 610.747 526.471 609.292 529.406 607.65C548.124 597.181 556.954 581.028 562.611 561.02Z"/>
	<path fill="#210942" transform="scale(2.60844 2.60844)" d="M562.611 561.02C574.504 553.762 586.067 545.877 598.029 538.768C598.011 550.456 598.449 562.365 597.902 574.028C584.453 582.27 571.263 591.346 557.133 598.367C549.71 602.055 541.986 604.919 534.218 607.777C529.88 609.373 524.976 611.619 520.396 612.21C523.423 610.747 526.471 609.292 529.406 607.65C548.124 597.181 556.954 581.028 562.611 561.02Z"/>
	<path fill="#210942" transform="scale(2.60844 2.60844)" d="M462.536 608.71C465.893 610.542 469.234 612.265 472.736 613.804C457.903 621.105 444.105 631.267 430.306 640.365L362.446 684.965C353.833 690.617 345.475 696.893 336.693 702.249C324.043 710.011 309.099 718.646 298.024 728.379C295.84 726.038 293.982 723.406 292.802 720.419C295.647 716.255 322.418 699.937 328.528 695.373C373.807 667.525 416.786 635.817 462.536 608.71Z"/>
	<path fill="#A00A1F" transform="scale(2.60844 2.60844)" d="M298.024 728.379C309.099 718.646 324.043 710.011 336.693 702.249C340.221 707.176 360.244 735.045 363.408 737.139L363.386 737.388C357.971 740.736 327.558 760.852 325.367 764.048C322.977 761.711 320.95 758.276 318.958 755.558L304.908 736.291C303.046 733.727 301.202 730.562 298.775 728.552L298.024 728.379Z"/>
	<path fill="#100638" transform="scale(2.60844 2.60844)" d="M597.863 586.331C597.948 589.869 598.022 593.399 597.97 596.938C584.327 605.236 570.994 614.039 557.489 622.557C493.868 662.686 431.432 704.524 368.399 745.551L368.151 745.5C355.424 754.213 342.526 762.719 329.875 771.537L329.422 771.621C327.412 769.82 326.605 767.209 325.588 764.776L325.367 764.048C327.558 760.852 357.971 740.736 363.386 737.388L363.408 737.139C374.573 730.118 385.401 722.649 396.451 715.462L490.055 654.219Q513.993 638.9 538.132 623.903Q567.861 604.9 597.863 586.331Z"/>
	<path fill="#4EC6B7" transform="scale(2.60844 2.60844)" d="M620.082 638.124C648.936 621.614 676.447 602.411 704.413 584.448C712.177 579.461 720.276 574.995 728.118 570.13C731.973 567.739 744.317 558.968 747.597 558.446L748.097 558.625C751.797 562.312 754.263 567.242 758.01 570.764C761.872 575.703 765.604 580.892 769.941 585.424L770.45 586.286C773.503 589.283 776.489 592.398 779.92 594.969C789.904 600.763 800.188 606.057 811.795 607.602C813.79 607.797 815.824 608.103 817.828 607.948L826.696 607.795C837.698 607.376 848.956 603.545 859.144 599.565C866.308 604.961 873.007 611.118 879.832 616.939C887.817 623.751 896.092 630.427 903.531 637.837Q880.623 640.181 857.755 642.882C849.463 643.842 840.981 645.267 832.651 645.591C835.16 658.219 839.211 670.629 842.778 682.991C846.542 696.041 849.984 709.187 853.587 722.283C860.983 749.167 867.644 779.369 876.821 805.532Q843.709 795.437 810.72 784.946C792.078 778.836 773.583 772.283 754.765 766.71C743.871 763.484 732.508 762.039 721.622 758.91C709.857 796.725 699.102 834.809 687.988 872.813C682.885 890.266 678.497 909.194 671.982 926.082C660.479 916.758 650.164 905.299 639.44 895.066C622.555 878.956 605.175 863.318 588.571 846.929C585.872 844.265 566.459 827.138 566.066 825.62C563.688 826.008 560.96 826.22 558.649 826.84C524.073 832.49 486.847 835.158 452.335 827.73C454.317 825.357 457.706 823.534 460.246 821.744C469.312 815.354 508.333 793.368 512.843 787.186C517.297 792.708 522.71 798.002 528.7 801.841C541.721 810.189 559.319 813.599 574.42 810.141C590.116 806.548 605.357 796.363 613.903 782.62C625.053 764.691 624.793 747.039 620.111 727.291C619.795 717.898 620.033 708.434 620.032 699.033L620.075 650.265Q620.037 644.194 620.082 638.124Z"/>
	<path fill="#210942" transform="scale(2.60844 2.60844)" d="M652.191 683.443L652.318 687.39C652.725 704.07 658.471 718.871 670.637 730.498Q671.759 731.582 672.934 732.609Q674.109 733.635 675.333 734.602Q676.558 735.569 677.829 736.474Q679.1 737.378 680.415 738.218Q681.73 739.058 683.085 739.832Q684.44 740.605 685.832 741.31Q687.224 742.015 688.649 742.65Q690.074 743.284 691.53 743.847Q692.985 744.41 694.466 744.899Q695.948 745.389 697.452 745.804Q698.956 746.219 700.479 746.558Q702.002 746.898 703.539 747.161Q705.077 747.424 706.626 747.61Q708.176 747.796 709.732 747.905Q711.289 748.013 712.848 748.044Q714.408 748.075 715.968 748.028C719.132 747.93 722.276 747.53 725.428 747.419C710.628 758.87 695.971 770.79 680.383 781.152C655.833 797.472 628.634 808.891 600.429 817.193C589.078 820.535 577.452 822.536 566.066 825.62C563.688 826.008 560.96 826.22 558.649 826.84C524.073 832.49 486.847 835.158 452.335 827.73C454.317 825.357 457.706 823.534 460.246 821.744C469.312 815.354 508.333 793.368 512.843 787.186C517.297 792.708 522.71 798.002 528.7 801.841C541.721 810.189 559.319 813.599 574.42 810.141C590.116 806.548 605.357 796.363 613.903 782.62C625.053 764.691 624.793 747.039 620.111 727.291C619.795 717.898 620.033 708.434 620.032 699.033C624.745 696.291 629.843 694.147 634.738 691.751C640.507 688.928 646.223 685.809 652.191 683.443Z"/>
	<path fill="#2BB0C2" transform="scale(2.60844 2.60844)" d="M620.082 638.124C648.936 621.614 676.447 602.411 704.413 584.448C712.177 579.461 720.276 574.995 728.118 570.13C731.973 567.739 744.317 558.968 747.597 558.446L748.097 558.625C751.797 562.312 754.263 567.242 758.01 570.764C761.872 575.703 765.604 580.892 769.941 585.424L770.45 586.286C773.503 589.283 776.489 592.398 779.92 594.969C789.904 600.763 800.188 606.057 811.795 607.602C808.986 616.753 802.786 626.024 798.264 634.501C790.957 648.199 784.127 663.163 775.223 675.891C777.007 693.756 773.708 710.513 762.149 724.774C754.685 733.982 745.377 739.888 734.41 744.189C731.509 745.327 728.218 746.117 725.428 747.419C722.276 747.53 719.132 747.93 715.968 748.028Q714.408 748.075 712.848 748.044Q711.289 748.013 709.732 747.905Q708.176 747.796 706.626 747.61Q705.077 747.424 703.539 747.161Q702.002 746.898 700.479 746.558Q698.956 746.219 697.452 745.804Q695.948 745.389 694.466 744.9Q692.985 744.41 691.53 743.847Q690.074 743.285 688.649 742.65Q687.224 742.015 685.832 741.31Q684.44 740.605 683.085 739.832Q681.73 739.058 680.415 738.218Q679.1 737.378 677.829 736.474Q676.558 735.569 675.333 734.602Q674.109 733.635 672.934 732.609Q671.759 731.582 670.637 730.498C658.471 718.871 652.725 704.07 652.318 687.39L652.191 683.443C646.223 685.809 640.507 688.928 634.738 691.751C629.843 694.147 624.745 696.291 620.032 699.033L620.075 650.265Q620.037 644.194 620.082 638.124Z"/>
	<path fill="#210942" transform="scale(2.60844 2.60844)" d="M770.45 586.286C773.503 589.283 776.489 592.398 779.92 594.969C789.904 600.763 800.188 606.057 811.795 607.602C808.986 616.753 802.786 626.024 798.264 634.501C790.957 648.199 784.127 663.163 775.223 675.891C774.853 673.541 774.487 671.199 773.997 668.871L773.981 667.218C774.891 665.693 777.367 665.178 778.794 663.947C780.719 659.886 774.304 644.643 772.804 639.763C768.9 627.057 770.549 600.596 770.45 586.286Z"/>
	<path fill="#E9383A" transform="scale(2.60844 2.60844)" d="M620.082 638.124C648.936 621.614 676.447 602.411 704.413 584.448C712.177 579.461 720.276 574.995 728.118 570.13C731.973 567.739 744.317 558.968 747.597 558.446L747.62 569.282C749.212 590.17 747.193 611.578 747.862 632.553C736.506 624.566 720.302 621.789 706.727 624.144C690.123 627.025 673.461 636.268 663.768 650.228C656.733 660.36 653.324 671.211 652.191 683.443C646.223 685.809 640.507 688.928 634.738 691.751C629.843 694.147 624.745 696.291 620.032 699.033L620.075 650.265Q620.037 644.194 620.082 638.124Z"/>
	<path fill="#100638" transform="scale(2.60844 2.60844)" d="M620.082 638.124C648.936 621.614 676.447 602.411 704.413 584.448C712.177 579.461 720.276 574.995 728.118 570.13C731.973 567.739 744.317 558.968 747.597 558.446L747.62 569.282C740.14 572.91 733.165 577.735 726.164 582.202L697.258 600.492Q672.46 616.053 647.848 631.904C638.554 637.88 628.882 643.598 620.075 650.265Q620.037 644.194 620.082 638.124Z"/>
	<path fill="#56266C" transform="scale(2.60844 2.60844)" d="M676.929 686.564C677.473 679.181 679.14 672.196 683.236 665.944C688.683 657.631 697.228 652.348 706.907 650.426C716.607 648.5 726.611 650.323 734.808 655.907C744.445 662.471 749.187 671.1 751.306 682.371C762.003 679.825 765.317 673.372 773.997 668.871C774.487 671.199 774.853 673.541 775.223 675.891C777.007 693.756 773.708 710.513 762.149 724.774C754.685 733.982 745.377 739.888 734.41 744.189C731.509 745.327 728.218 746.117 725.428 747.419C722.276 747.53 719.132 747.93 715.968 748.028Q714.408 748.075 712.848 748.044Q711.289 748.013 709.732 747.905Q708.176 747.796 706.626 747.61Q705.077 747.424 703.539 747.161Q702.002 746.898 700.479 746.558Q698.956 746.219 697.452 745.804Q695.948 745.389 694.466 744.9Q692.985 744.41 691.53 743.847Q690.074 743.285 688.649 742.65Q687.224 742.015 685.832 741.31Q684.44 740.605 683.085 739.832Q681.73 739.058 680.415 738.218Q679.1 737.378 677.829 736.474Q676.558 735.569 675.333 734.602Q674.109 733.635 672.934 732.609Q671.759 731.582 670.637 730.498C658.471 718.871 652.725 704.07 652.318 687.39C660.502 686.94 668.735 686.863 676.929 686.564Z"/>
	<path fill="#9058B8" transform="scale(2.60844 2.60844)" d="M773.997 668.871C774.487 671.199 774.853 673.541 775.223 675.891C777.007 693.756 773.708 710.513 762.149 724.774C754.685 733.982 745.377 739.888 734.41 744.189C731.509 745.327 728.218 746.117 725.428 747.419C722.276 747.53 719.132 747.93 715.968 748.028Q714.408 748.075 712.848 748.044Q711.289 748.013 709.732 747.905Q708.176 747.796 706.626 747.61Q705.077 747.424 703.539 747.161Q702.002 746.898 700.479 746.558Q698.956 746.219 697.452 745.804Q695.948 745.389 694.466 744.9Q692.985 744.41 691.53 743.847Q690.074 743.285 688.649 742.65Q687.224 742.015 685.832 741.31Q684.44 740.605 683.085 739.832Q681.73 739.058 680.415 738.218Q679.1 737.378 677.829 736.474Q676.558 735.569 675.333 734.602Q674.109 733.635 672.934 732.609Q671.759 731.582 670.637 730.498C658.471 718.871 652.725 704.07 652.318 687.39C660.502 686.94 668.735 686.863 676.929 686.564C677.348 695.685 680.62 704.555 687.043 711.164Q687.666 711.807 688.319 712.417Q688.973 713.028 689.657 713.605Q690.341 714.182 691.053 714.724Q691.764 715.266 692.502 715.772Q693.24 716.277 694.003 716.746Q694.765 717.214 695.55 717.643Q696.335 718.072 697.141 718.462Q697.946 718.851 698.77 719.2Q699.594 719.549 700.434 719.856Q701.275 720.163 702.129 720.427Q702.984 720.692 703.851 720.913Q704.718 721.134 705.595 721.312Q706.471 721.49 707.356 721.623Q708.241 721.757 709.131 721.846Q710.021 721.935 710.915 721.979Q711.808 722.023 712.703 722.023C723.259 722.075 733.868 718.158 741.379 710.645C749.542 702.48 751.333 693.532 751.306 682.371C762.003 679.825 765.317 673.372 773.997 668.871Z"/>
	<path fill="#E9383A" transform="scale(2.60844 2.60844)" d="M546.444 193.028C551.347 189.753 556.699 187.109 561.918 184.382C561.871 190.989 561.535 197.719 561.842 204.311C560.985 225.069 561.573 245.984 562.062 266.749C562.037 277.681 561.069 295.356 562.311 305.527C563.402 327.425 562.55 349.81 562.543 371.748L562.538 388.087Q562.438 405.307 562.528 422.527C562.493 428.516 562.608 434.548 562.394 440.53Q562.282 458.294 562.493 476.056L596.689 476.011C602.698 476.015 609.268 475.563 615.196 476.415C617.809 476.488 620.437 476.503 623.045 476.682C616.795 482.994 600.966 485.913 597.171 493.48L596.647 493.781L597.615 494.048C598.633 497.05 598.004 501.672 597.969 504.901C597.912 516.152 597.578 527.53 598.029 538.768C586.067 545.877 574.504 553.762 562.611 561.02C556.954 581.028 548.124 597.181 529.406 607.65C526.471 609.292 523.423 610.747 520.396 612.21C504.178 617.101 489.251 618.581 472.736 613.804C469.234 612.265 465.893 610.542 462.536 608.71C416.786 635.817 373.807 667.525 328.528 695.373C322.306 685.833 316.677 675.726 310.855 665.928Q305.911 661.289 301.203 656.41C293.216 648.033 287.376 638.134 281.878 628.03C263.494 594.248 254.659 560.525 255.564 521.892C256.574 520.208 257.21 517.584 257.828 515.696C262.533 501.306 261.409 487.64 262.178 472.891C262.428 468.094 263.259 463.35 264.048 458.618C263.993 453.952 264.359 449.221 264.388 444.538Q264.4 419.124 264.881 393.715Q265.077 356.574 266.031 319.444C264.859 312.714 265.628 288.887 266.328 281.423C269.443 269.393 270.208 259.596 267.231 247.399L268.236 247.249C276.488 254.193 296.196 271.655 302.558 279.682L308.066 274.867C356.022 236.053 404.352 211.726 465.625 201.804C469.002 200.955 473.102 201.089 476.623 200.589Q491.87 199.485 507.15 199.025C513.201 199.15 519.252 199.264 525.282 199.819C530.115 200.265 534.983 201.102 539.822 201.339L546.266 202.225C546.489 199.823 546.296 197.309 546.258 194.893C546.454 194.389 546.409 193.574 546.444 193.028Z"/>
	<path fill="#E4E3E7" transform="scale(2.60844 2.60844)" d="M330.614 463.468C336.211 468.654 342.249 473.369 348.25 478.074C358.505 486.115 369.133 493.112 369.607 507.564C369.919 517.089 365.923 525.684 362.298 534.264C363.503 525.073 364.187 516.675 358.221 508.72C351.228 499.395 339.093 493.374 330.681 484.957C329.442 479.606 330.465 469.404 330.614 463.468Z"/>
	<path fill="#FDBE2B" transform="scale(2.60844 2.60844)" d="M322.998 555.064L322.992 479.347C322.99 473.177 322.115 454.745 323.138 449.689C323.45 448.146 323.889 447.461 325.198 446.619C326.297 446.937 326.67 447.182 327.476 448.057C331.387 452.303 330.85 458.177 330.614 463.468C330.465 469.404 329.442 479.606 330.681 484.957L330.605 540.203C330.553 549.422 331.225 559.7 329.812 568.787C329.357 571.717 328.371 574.566 326.736 577.053C323.349 582.204 317.168 586.322 311.145 587.584C303.87 589.108 295.107 588.95 288.799 584.605C284.486 581.635 281.944 576.902 281.238 571.764C280.499 566.39 282.281 561.307 285.679 557.147C289.965 551.902 296.896 548.633 303.591 548.016C310.709 547.359 317.139 549.997 322.464 554.595L322.998 555.064Z"/>
	<path fill="#A00A1F" transform="scale(2.60844 2.60844)" d="M414.522 371.581C419.991 364.101 426.289 356.875 432.815 350.293C462.195 320.663 504.521 304.73 546.012 304.517C545.706 326.798 546.263 349.157 545.639 371.421L414.522 371.581Z"/>
	<path fill="#E4E3E7" transform="scale(2.60844 2.60844)" d="M495.073 319.644C499.43 319.473 503.583 320.482 507.286 322.842C512.283 326.027 515.575 331.223 516.812 336.974C518.052 342.739 516.923 348.389 513.555 353.24C509.615 358.914 504.624 360.798 498.146 362.043C493.362 362.165 488.917 361.321 484.791 358.775C479.8 355.696 476.427 350.683 475.183 344.978Q475.073 344.465 474.989 343.946Q474.905 343.428 474.848 342.906Q474.791 342.384 474.76 341.859Q474.73 341.335 474.726 340.81Q474.722 340.285 474.746 339.76Q474.769 339.236 474.819 338.713Q474.869 338.19 474.946 337.67Q475.022 337.151 475.125 336.636Q475.229 336.121 475.358 335.612Q475.487 335.103 475.642 334.601Q475.798 334.1 475.978 333.607Q476.159 333.114 476.365 332.63Q476.57 332.147 476.8 331.675Q477.03 331.203 477.284 330.743Q477.538 330.284 477.815 329.837Q478.092 329.391 478.392 328.96C482.417 323.132 488.343 320.733 495.073 319.644Z"/>
	<path fill="#210942" transform="scale(2.60844 2.60844)" d="M507.15 199.025C513.201 199.15 519.252 199.264 525.282 199.819C530.115 200.265 534.983 201.102 539.822 201.339L546.266 202.225C545.77 210.172 546.079 218.281 546.073 226.246L546.079 263.71C539.155 262.24 531.82 261.793 524.771 261.238C473.891 257.236 420.89 271.486 378.112 299.234C334.953 327.229 299.975 365.597 278.939 412.738C272.952 426.156 267.932 439.905 264.898 454.314Q264.446 456.461 264.048 458.618C263.993 453.952 264.359 449.221 264.388 444.538Q264.4 419.124 264.881 393.715Q265.077 356.574 266.031 319.444C264.859 312.714 265.628 288.887 266.328 281.423C269.443 269.393 270.208 259.596 267.231 247.399L268.236 247.249C276.488 254.193 296.196 271.655 302.558 279.682L308.066 274.867C356.022 236.053 404.352 211.726 465.625 201.804C469.002 200.955 473.102 201.089 476.623 200.589Q491.87 199.485 507.15 199.025Z"/>
	<path fill="#4EC6B7" transform="scale(2.60844 2.60844)" d="M267.231 247.399L268.236 247.249C276.488 254.193 296.196 271.655 302.558 279.682C288.698 292.634 278.35 305.314 266.031 319.444C264.859 312.714 265.628 288.887 266.328 281.423C269.443 269.393 270.208 259.596 267.231 247.399Z"/>
	<path fill="#9058B8" transform="scale(2.60844 2.60844)" d="M546.444 193.028C551.347 189.753 556.699 187.109 561.918 184.382C561.871 190.989 561.535 197.719 561.842 204.311C560.985 225.069 561.573 245.984 562.062 266.749C562.037 277.681 561.069 295.356 562.311 305.527C563.402 327.425 562.55 349.81 562.543 371.748L562.538 388.087Q562.438 405.307 562.528 422.527C562.493 428.516 562.608 434.548 562.394 440.53Q562.282 458.294 562.493 476.056L596.689 476.011C602.698 476.015 609.268 475.563 615.196 476.415C617.809 476.488 620.437 476.503 623.045 476.682C616.795 482.994 600.966 485.913 597.171 493.48L596.647 493.781L597.615 494.048C598.633 497.05 598.004 501.672 597.969 504.901C597.912 516.152 597.578 527.53 598.029 538.768C586.067 545.877 574.504 553.762 562.611 561.02C556.954 581.028 548.124 597.181 529.406 607.65C526.471 609.292 523.423 610.747 520.396 612.21C504.178 617.101 489.251 618.581 472.736 613.804C469.234 612.265 465.893 610.542 462.536 608.71C449.715 600.949 445.444 593.682 436.386 582.464C420.127 573.416 413.343 561.186 402.5 547.089C395.375 537.527 387.886 518.03 385.187 506.548C384.183 502.276 383.736 497.894 383.243 493.539C382.361 487.718 382.219 481.886 381.646 476.038C380.509 467.478 381.503 448.66 384.056 440.597C386.408 435.234 387.34 428.195 388.681 422.441C389.825 416.261 398.88 392.039 403.923 388.337C405.39 382.821 411.039 376.131 414.522 371.581L545.639 371.421C546.263 349.157 545.706 326.798 546.012 304.517C546.531 290.923 546.229 277.31 546.079 263.71L546.073 226.246C546.079 218.281 545.77 210.172 546.266 202.225C546.489 199.823 546.296 197.309 546.258 194.893C546.454 194.389 546.409 193.574 546.444 193.028Z"/>
	<path fill="#56266C" transform="scale(2.60844 2.60844)" d="M442.371 506.564C442.136 509.657 438.252 513.681 436.869 516.56C426.378 538.392 426.71 560.493 436.386 582.464C420.127 573.416 413.343 561.186 402.5 547.089L423.469 546.829C425.885 530.838 429.934 517.626 442.371 506.564Z"/>
	<path fill="#56266C" transform="scale(2.60844 2.60844)" d="M615.196 476.415C617.809 476.488 620.437 476.503 623.045 476.682C616.795 482.994 600.966 485.913 597.171 493.48L596.647 493.781C585.402 493.13 573.856 493.558 562.577 493.495C562.47 487.848 562.587 482.177 562.601 476.527C580.091 476.466 597.732 477.078 615.196 476.415Z"/>
	<path fill="#E9383A" transform="scale(2.60844 2.60844)" d="M562.577 493.495C573.856 493.558 585.402 493.13 596.647 493.781L597.615 494.048C598.633 497.05 598.004 501.672 597.969 504.901C597.912 516.152 597.578 527.53 598.029 538.768C586.067 545.877 574.504 553.762 562.611 561.02C564.247 549.77 563.687 540.498 561.214 529.453L564.925 524.496C564.366 523.913 563.647 523.282 563.357 522.507C561.968 518.795 562.689 498.842 562.577 493.495Z"/>
	<path fill="#E4E3E7" transform="scale(2.60844 2.60844)" d="M562.577 493.495C573.856 493.558 585.402 493.13 596.647 493.781L597.615 494.048C598.633 497.05 598.004 501.672 597.969 504.901C592.891 508.8 586.828 511.698 581.253 514.861C575.755 517.981 570.387 521.316 564.925 524.496C564.366 523.913 563.647 523.282 563.357 522.507C561.968 518.795 562.689 498.842 562.577 493.495Z"/>
	<path fill="#E4E3E7" transform="scale(2.60844 2.60844)" d="M383.243 493.539L456.339 493.618C455.432 496.935 445.003 502.933 442.371 506.564C429.934 517.626 425.885 530.838 423.469 546.829L402.5 547.089C395.375 537.527 387.886 518.03 385.187 506.548C384.183 502.276 383.736 497.894 383.243 493.539Z"/>
	<path fill="#56266C" transform="scale(2.60844 2.60844)" d="M388.681 422.441L545.491 422.498Q545.375 431.488 545.505 440.477L437.899 440.466L403.156 440.423C396.861 440.416 390.323 440.062 384.056 440.597C386.408 435.234 387.34 428.195 388.681 422.441Z"/>
	<path fill="#56266C" transform="scale(2.60844 2.60844)" d="M494.015 509.66C502.541 508.641 511.701 511.159 518.896 515.716C527.698 521.289 533.907 530.578 536.174 540.708C538.617 551.623 537.213 563.539 531.066 573.001C524.308 583.404 514.35 588.523 502.511 591.016C491.82 591.478 482.423 589.704 473.718 583.127Q472.944 582.542 472.2 581.919Q471.456 581.296 470.743 580.638Q470.031 579.979 469.351 579.286Q468.672 578.594 468.028 577.868Q467.383 577.143 466.775 576.386Q466.167 575.63 465.598 574.845Q465.028 574.059 464.497 573.247Q463.967 572.434 463.477 571.597Q462.987 570.759 462.539 569.899Q462.091 569.038 461.686 568.156Q461.281 567.274 460.92 566.374Q460.559 565.473 460.242 564.556Q459.926 563.639 459.655 562.707Q459.384 561.775 459.16 560.831Q458.935 559.887 458.757 558.933Q458.58 557.979 458.449 557.018C456.946 546.055 459.821 534.332 466.54 525.498C473.294 516.619 483.03 511.168 494.015 509.66Z"/>
	<path fill="#E4E3E7" transform="scale(2.60844 2.60844)" d="M414.522 371.581L545.639 371.421L545.542 387.938C545.77 399.419 545.812 411.022 545.491 422.498L388.681 422.441C389.825 416.261 398.88 392.039 403.923 388.337C405.39 382.821 411.039 376.131 414.522 371.581Z"/>
	<path fill="#210942" transform="scale(2.60844 2.60844)" d="M414.522 371.581L545.639 371.421L545.542 387.938L451.112 388.41C435.423 388.43 419.6 388.809 403.923 388.337C405.39 382.821 411.039 376.131 414.522 371.581Z"/>
	<path fill="#E4E3E7" transform="scale(2.60844 2.60844)" d="M384.056 440.597C401.517 441.754 419.445 440.882 436.968 440.9L545.479 440.884C545.527 446.504 546.588 472.141 545.445 475.718L544.168 476.198L545.416 476.65C546.782 480.038 545.995 488.984 545.98 493.101C542.436 493.217 538.899 493.373 535.354 493.205C519.012 483.069 499.475 478.544 480.487 482.891C476.415 483.823 471.729 485.045 468.004 486.938C464.632 488.652 459.862 493.053 456.339 493.618L383.243 493.539C382.361 487.718 382.219 481.886 381.646 476.038C380.509 467.478 381.503 448.66 384.056 440.597Z"/>
	<path fill="#56266C" transform="scale(2.60844 2.60844)" d="M381.646 476.038L487.488 475.84C505.567 475.826 526.318 475.117 544.168 476.198L545.416 476.65C546.782 480.038 545.995 488.984 545.98 493.101C542.436 493.217 538.899 493.373 535.354 493.205C519.012 483.069 499.475 478.544 480.487 482.891C476.415 483.823 471.729 485.045 468.004 486.938C464.632 488.652 459.862 493.053 456.339 493.618L383.243 493.539C382.361 487.718 382.219 481.886 381.646 476.038Z"/>
</svg>
